<?xml version="1.0" encoding="UTF-8"?>
<!-- Generated by scripts/icons-preview.mjs — do not edit by hand -->
<!-- Source: icons.svg | Icons: 75 | Color: #333333 -->
<svg xmlns="http://www.w3.org/2000/svg" xmlns:xlink="http://www.w3.org/1999/xlink"
  width="880" height="1300" viewBox="0 0 880 1300"
  style="color: #333333; background: #f5f5f5; font-family: ui-monospace, SFMono-Regular, Menlo, Monaco, Consolas, monospace;">
  <style>
    .icon-label { font-size: 9px; fill: #666666; }
    .title { font-size: 14px; font-weight: 600; fill: #333333; font-family: system-ui, sans-serif; }
    .subtitle { font-size: 11px; fill: #888888; font-family: system-ui, sans-serif; }
  </style>
  <text x="24" y="20" class="title">Mastra Icons Preview</text>
  <text x="24" y="38" class="subtitle">75 icons · currentColor = #333333</text>
  <defs>
<symbol viewBox="0 0 40 39" fill="none" id="agent-hour">
  <path d="M13.9717 8.56041C13.9717 5.47492 16.4729 2.97363 19.5584 2.97363C22.6439 2.97363 25.1452 5.47492 25.1452 8.5604V16.9853C25.1452 20.0708 22.6439 22.5721 19.5584 22.5721C16.4729 22.5721 13.9717 20.0708 13.9717 16.9853V8.56041Z" fill="currentColor"/>
  <path d="M10.0857 16.1869C10.0857 21.5205 14.4094 25.8442 19.743 25.8442C25.0766 25.8442 29.4003 21.5205 29.4003 16.1869H32.6808C32.6808 22.7765 27.7539 28.2111 21.3832 29.0174V35.0418H18.1027V29.0174C11.7321 28.2111 6.80518 22.7765 6.80518 16.1869H10.0857Z" fill="currentColor"/>
</symbol>
<symbol fill="none" viewBox="0 0 16 16" id="agent-new"><path stroke="#939393" stroke-linecap="round" stroke-linejoin="round" stroke-width="1.33" d="M11.3 12H9.98c-.37 0-.66.3-.66.67v.66c0 .37-.3.67-.67.67H5.3a.67.67 0 0 1-.67-.67c0-1.39-.06-2.58-1-3.79A4.67 4.67 0 0 1 7.3 2c1.9 0 3.64.91 4.37 2.76.41 1.06.95 1.79 1.56 2.66.22.32.13.74-.2.94l-.74.45a.67.67 0 0 0-.33.57v1.95c0 .37-.3.67-.66.67Z"/><path fill="currentColor" d="M7.17 6.43c0 .09-.08.15-.16.12l-1.23-.4a.12.12 0 0 0-.16.08l-.23.71c-.02.07.01.14.08.16l1.23.4c.08.03.11.12.06.2L6 8.73a.12.12 0 0 0 .03.17l.6.44c.06.05.14.03.18-.02l.76-1.05a.12.12 0 0 1 .2 0l.76 1.05c.04.05.12.07.18.02l.6-.44a.12.12 0 0 0 .03-.17l-.76-1.05a.12.12 0 0 1 .06-.2l1.23-.39c.07-.02.1-.1.08-.16l-.23-.71a.12.12 0 0 0-.15-.08l-1.24.4a.12.12 0 0 1-.16-.12v-1.3A.12.12 0 0 0 8.05 5H7.3a.12.12 0 0 0-.13.13v1.29Z"/></symbol>
<symbol fill="none" viewBox="0 0 24 24" id="agent"><path fill="currentColor" d="M17.05 16.1a1.68 1.68 0 0 1 1.04-3.19 2.58 2.58 0 1 0-1.29-3.97 5.94 5.94 0 0 1-9.6 0 2.58 2.58 0 1 0-1.29 3.97 1.68 1.68 0 1 1 1.04 3.2 2.58 2.58 0 1 0 3.37 2.45 1.68 1.68 0 0 1 3.35 0 2.58 2.58 0 1 0 3.38-2.46Z"/><path fill="currentColor" d="M12 8.02a2.58 2.58 0 1 0 0-5.15 2.58 2.58 0 0 0 0 5.15Z"/></symbol>
<symbol fill="none" viewBox="0 0 17 17" id="agentic-rag"><path fill="currentColor" fill-rule="evenodd" d="M.43 2.4c0-.63.51-1.15 1.15-1.15h1.7c.64 0 1.15.51 1.15 1.15v1.7c0 .64-.5 1.15-1.14 1.15H1.58c-.63 0-1.15-.5-1.15-1.14V2.4Zm5 0c0-.63.51-1.15 1.15-1.15h1.7c.64 0 1.15.51 1.15 1.15v1.7c0 .64-.5 1.15-1.14 1.15H6.58c-.63 0-1.15-.5-1.15-1.14V2.4Zm-5 5c0-.63.51-1.15 1.15-1.15h1.7c.64 0 1.15.51 1.15 1.15v1.7c0 .64-.5 1.15-1.14 1.15H1.58c-.63 0-1.15-.5-1.15-1.14V7.4Zm0 5c0-.63.51-1.15 1.15-1.15h1.7c.64 0 1.15.51 1.15 1.15v1.7c0 .64-.5 1.15-1.14 1.15H1.58c-.63 0-1.15-.5-1.15-1.14v-1.7Zm5 0c0-.63.51-1.15 1.15-1.15h1.7c.64 0 1.15.51 1.15 1.15v1.7c0 .64-.5 1.15-1.14 1.15H6.58c-.63 0-1.15-.5-1.15-1.14v-1.7Zm0-5c0-.63.51-1.15 1.15-1.15h1.7c.64 0 1.15.51 1.15 1.15v1.7c0 .64-.5 1.15-1.14 1.15H6.58c-.63 0-1.15-.5-1.15-1.14V7.4Zm5-5c0-.63.51-1.15 1.15-1.15h1.7c.64 0 1.15.51 1.15 1.15v1.7c0 .64-.5 1.15-1.14 1.15h-1.71c-.63 0-1.15-.5-1.15-1.14V2.4Zm5.62 8.62a.6.6 0 0 1 0 .85.6.6 0 0 1-.86 0l-1.03-1.03-.07-.1a2.42 2.42 0 1 1 1.17-2.06c0 .45-.13.87-.35 1.23.04.03.08.04.1.07l1.04 1.04Zm-3.2-1.14a1.2 1.2 0 1 0 0-2.42 1.2 1.2 0 0 0 0 2.42Z" clip-rule="evenodd"/></symbol>
<symbol fill="none" viewBox="0 0 24 24" id="apache"><path fill="currentColor" d="M18.44 21.16a2.42 2.42 0 0 1-2.24-1.31 3.56 3.56 0 0 1-.21-2.37 2.6 2.6 0 0 1 .89-1.34 2.52 2.52 0 0 1 1.56-.5 2.42 2.42 0 0 1 2.24 1.31 3.4 3.4 0 0 1 .2 2.37 2.46 2.46 0 0 1-2.45 1.84Zm0-1.12a1.03 1.03 0 0 0 .74-.3c.1-.09.18-.2.25-.33a2.4 2.4 0 0 0 .22-1c0-.34-.06-.63-.16-.87-.1-.25-.24-.44-.42-.57a1 1 0 0 0-.63-.2c-.14 0-.28.02-.4.07a.95.95 0 0 0-.34.22c-.1.1-.18.2-.25.34a2.08 2.08 0 0 0-.22 1c0 .32.06.61.16.86s.24.44.42.58c.18.13.4.2.63.2Zm-4.07 1V19.9h1.33v1.13h-1.33Zm-5.15 0v-.8l1.26-.88c.38-.26.7-.5.96-.72.27-.22.48-.43.62-.63s.2-.4.2-.6a.65.65 0 0 0-.38-.61.95.95 0 0 0-.44-.09c-.2 0-.36.04-.5.14a.8.8 0 0 0-.32.36c-.06.15-.1.33-.08.53l-1.37-.08a2 2 0 0 1 .17-.83 1.99 1.99 0 0 1 1.21-1.04 2.97 2.97 0 0 1 1.8-.02c.27.08.5.2.68.35.2.15.34.33.44.54a1.62 1.62 0 0 1 .02 1.34c-.08.21-.2.4-.35.6a6.24 6.24 0 0 1-1.2 1l-.75.42h2.47v1.02H9.22Z"/><path fill="currentColor" d="M11.53 4.07a5.54 5.54 0 0 1 7.83 7.83l-2.96 2.97-.1.07h-.01v.01c-.3.24-.57.51-.8.82l-.56.57c-.04-.13-.1-.25-.15-.37a2.98 2.98 0 0 0-1.05-1.2l4.25-4.25a3.59 3.59 0 0 0-5.07-5.07l-1.6 1.59v3.69l2.8-2.79a.98.98 0 0 1 1.37 1.38l-4.16 4.17-.74.74-.48.13h-.02a3.7 3.7 0 0 0-1.22.69 3.25 3.25 0 0 0-1.15 2.58h-.54l-2.5 2.5a.98.98 0 1 1-1.38-1.37l2.5-2.5V9.8l5.74-5.73Z"/><path fill="currentColor" d="m12.2 15.69.16.04a1.88 1.88 0 0 1 1.11.9c.1.2.16.43.16.69l-.03.32h-1.37a.87.87 0 0 0 .04-.26.65.65 0 0 0-.4-.61.95.95 0 0 0-.43-.1.9.9 0 0 0-.5.14.8.8 0 0 0-.32.36c-.06.14-.09.3-.08.47H9.36l-.19-.01a2 2 0 0 1 .17-.83c.1-.25.27-.46.47-.64a2.12 2.12 0 0 1 .97-.47h1.42Z"/></symbol>
<symbol viewBox="0 0 14 14" fill="none" id="arrow">
<path d="M2.58654 6.66917C2.49135 6.57398 2.49135 6.41965 2.58654 6.32446L6.82397 2.08702C6.91916 1.99183 7.07366 1.99167 7.16885 2.08686L7.74748 2.66549C7.74999 2.66801 7.75244 2.67056 7.75482 2.67316L11.4137 6.33205C11.5089 6.42724 11.5089 6.58157 11.4137 6.67676L10.8351 7.25539C10.7399 7.35058 10.5856 7.35058 10.4904 7.25539L7.92663 4.69165C7.82426 4.58928 7.64922 4.66178 7.64922 4.80655L7.64922 11.7409C7.64922 11.8755 7.54009 11.9846 7.40547 11.9846L6.58717 11.9846C6.45255 11.9846 6.34342 11.8755 6.34342 11.7409L6.34342 4.80657C6.34342 4.6618 6.16838 4.5893 6.06601 4.69167L3.50988 7.2478C3.41469 7.34299 3.26036 7.34299 3.16517 7.2478L2.58654 6.66917Z" fill="currentColor"/>
</symbol>
<symbol fill="none" viewBox="0 0 14 15" id="attachment"><path fill="currentColor" d="M11.06 6.86 7.81 10.1c-1.26 1.26-3.13 1.4-4.16.37-1.04-1.03-.9-2.9.37-4.16L7 3.33c.82-.81 2.01-.9 2.65-.26.65.65.56 1.84-.26 2.66L6.41 8.7c-.37.37-.88.4-1.14.15-.26-.26-.22-.77.15-1.15L8.12 5a.62.62 0 0 0-.87-.88l-2.7 2.7c-.83.84-.93 2.13-.15 2.9.77.78 2.06.68 2.88-.14l2.99-2.99c1.27-1.27 1.42-3.24.26-4.4-1.16-1.16-3.13-1.01-4.4.26L3.14 5.44c-1.72 1.73-1.92 4.37-.37 5.92 1.55 1.54 4.2 1.35 5.92-.38l3.25-3.25a.62.62 0 0 0-.88-.87Z"/></symbol>
<symbol fill="none" viewBox="0 0 24 24" id="auth"><path fill="currentColor" d="M14.41 10.81c0 1.43-1.09 2.59-2.43 2.59-1.35 0-2.44-1.16-2.44-2.59 0-1.42 1.1-2.58 2.44-2.58 1.34 0 2.43 1.16 2.43 2.58Zm-1.26-6.74a1.16 1.16 0 1 1-2.3 0 1.16 1.16 0 0 1 2.3 0Zm-4.12.49a1.16 1.16 0 1 1-2 1.15 1.16 1.16 0 0 1 2-1.15ZM5.7 7.03a1.16 1.16 0 1 1-1.15 2 1.16 1.16 0 0 1 1.16-2Zm13.74 7.93a1.16 1.16 0 1 1-1.15 2 1.16 1.16 0 0 1 1.15-2ZM4.07 10.85a1.16 1.16 0 1 1 0 2.3 1.16 1.16 0 0 1 0-2.3Zm15.86 0a1.16 1.16 0 1 1 0 2.3 1.16 1.16 0 0 1 0-2.3ZM4.55 14.96a1.16 1.16 0 1 1 1.16 2 1.16 1.16 0 0 1-1.16-2Zm13.74-7.93a1.16 1.16 0 1 1 1.15 2 1.16 1.16 0 0 1-1.15-2Zm-3.33-2.48a1.16 1.16 0 1 1 2 1.16 1.16 1.16 0 0 1-2-1.16Zm-2.98 10.84c2.37 0 4.43 1.52 5.46 3.76a8.24 8.24 0 0 1-5.46 2.05 8.2 8.2 0 0 1-5.47-2.06 6.12 6.12 0 0 1 5.47-3.75Z"/></symbol>
<symbol viewBox="0 0 17 17" fill="none" id="book">
<path fill-rule="evenodd" clip-rule="evenodd" d="M4.57909 2.77415L6.63756 1.40184C6.73768 1.33509 6.95489 1.31172 7.06532 1.35419L12.6304 3.4946C12.6908 3.51786 12.7773 3.64388 12.7773 3.71416V13.7077C12.7773 13.9839 13.0012 14.2077 13.2773 14.2077C13.5535 14.2077 13.7773 13.9839 13.7773 13.7077V3.71416C13.7773 3.23022 13.4361 2.73309 12.9894 2.56126L7.4243 0.420846C7.01204 0.262285 6.45406 0.32232 6.08286 0.569792L3.49999 2.2917L3.16605 2.51433L3.16858 2.52086C2.9315 2.62791 2.77734 2.87425 2.77734 3.20771V12.2565C2.77734 12.8087 3.1955 13.411 3.70916 13.6008L9.83229 15.8634C10.3469 16.0536 10.7641 15.7573 10.7641 15.2082V5.71805C10.7641 5.16605 10.3347 4.58357 9.81655 4.42068L4.57909 2.77415Z" fill="currentColor"/>
</symbol>
<symbol viewBox="0 0 13 13" fill="none" id="branch">
<path fill-rule="evenodd" clip-rule="evenodd" d="M9.23411 2.19507C8.04399 2.19507 7.0792 3.15986 7.0792 4.34998C7.0792 5.34158 7.74896 6.17674 8.66077 6.42778V7.3691C8.66077 7.91006 8.22223 8.3486 7.68126 8.3486H6.31166C6.11539 7.6329 5.55933 7.06602 4.85006 6.85452L4.85006 2.7839C4.85006 2.45932 4.58694 2.19619 4.26236 2.19619C3.93778 2.19619 3.67466 2.45932 3.67466 2.7839L3.67466 6.83806C2.75534 7.08413 2.07837 7.92294 2.07837 8.91986C2.07837 10.11 3.04316 11.0748 4.23328 11.0748C5.21368 11.0748 6.04116 10.4201 6.30235 9.52401H7.68126C8.87139 9.52401 9.83618 8.55922 9.83618 7.3691V6.41966C10.7333 6.15914 11.389 5.33114 11.389 4.34998C11.389 3.15986 10.4242 2.19507 9.23411 2.19507ZM8.25461 4.34998C8.25461 3.80901 8.69315 3.37047 9.23411 3.37047C9.77508 3.37047 10.2136 3.80901 10.2136 4.34998C10.2136 4.89095 9.77508 5.32948 9.23411 5.32948C8.69315 5.32948 8.25461 4.89095 8.25461 4.34998ZM3.25378 8.91986C3.25378 8.3789 3.69231 7.94036 4.23328 7.94036C4.77425 7.94036 5.21279 8.3789 5.21279 8.91986C5.21279 9.46083 4.77425 9.89937 4.23328 9.89937C3.69231 9.89937 3.25378 9.46083 3.25378 8.91986Z" fill="currentColor"/>
</symbol>
<symbol fill="none" viewBox="0 0 12 12" id="calendar-task"><g fill="#939393" fill-rule="evenodd" clip-path="url(#a)" clip-rule="evenodd"><path d="M11.0369 3.7858c0-1.5147-1.228-2.7426-2.7426-2.7426h-4.114c-1.5147 0-2.7426 1.228-2.7426 2.7426v4.114c0 1.5146 1.228 2.7426 2.7427 2.7426h.857a.5143.5143 0 0 0 0-1.0285h-.857c-.9467 0-1.7142-.7675-1.7142-1.7141V4.4714h7.5422v.1714a.5143.5143 0 0 0 1.0285 0v-.857Z"/><path d="M11.0797 7.3027c.2058-.2546.1947-.6543-.0248-.893-.2195-.2386-.5641-.2257-.7698.0288L7.9246 9.359 6.6871 8.083c-.2248-.2318-.569-.2083-.7689.0525-.1998.2607-.1796.66.0453.8918l1.3696 1.4121c.3677.3791.9288.3495 1.2653-.0668l2.4813-3.07Z"/></g><defs><clipPath id="a"><path fill="currentColor" d="M.8257.3677h10.9705v10.9705H.8257z"/></clipPath></defs></symbol>
<symbol fill="none" viewBox="0 0 24 24" id="canvas"><path fill="currentColor" d="M19.7 8.8c0-2-1.6-3.5-3.6-3.5H8.8c-2 0-3.5 1.6-3.5 3.5v7.3c0 2 1.6 3.6 3.5 3.6h3.6v-7.3h7.3V8.8Zm-5.1 9.3 3.5-3.5h-3.5V18Zm7.2-4.2-7.9 7.9H9A5.6 5.6 0 0 1 3.1 16V8.8c0-3.1 2.5-5.6 5.6-5.6H16c3.2 0 5.7 2.5 5.7 5.6V14Z"/></symbol>
<symbol fill="none" data-ignore="true" viewBox="0 0 16 16" id="check-filled"><path fill="#939393" fill-rule="evenodd" d="M8 0a8 8 0 1 1 0 16A8 8 0 0 1 8 0ZM6.3 8.9h.4L11 4.7a1 1 0 1 1 1.5 1.5l-5.6 5.5c-.1.2-.4.2-.6 0L3.6 9.2a1 1 0 1 1 1.5-1.5l1.2 1.2Z" clip-rule="evenodd"/></symbol>
<symbol fill="none" viewBox="0 0 13 13" id="check"><path fill="currentColor" fill-rule="evenodd" d="M6.6 2.38a4.11 4.11 0 1 0 0 8.22 4.11 4.11 0 0 0 0-8.22ZM1.3 6.49a5.29 5.29 0 1 1 10.58 0 5.29 5.29 0 0 1-10.58 0Z" clip-rule="evenodd"/><path fill="currentColor" fill-rule="evenodd" d="M8.66 5c.26.2.3.56.11.82l-2.12 2.8a.59.59 0 0 1-.94 0l-1.4-1.85a.59.59 0 1 1 .93-.71l.94 1.23L7.83 5.1a.6.6 0 0 1 .83-.11Z" clip-rule="evenodd"/></symbol>
<symbol fill="none" viewBox="0 0 16 16" id="checkmark"><path fill="currentColor" fill-rule="evenodd" d="M8 1a7 7 0 1 0 0 14A7 7 0 0 0 8 1m4.1 5.1a.85.85 0 1 0-1.2-1.2L6.5 9.3 5.1 7.9a.85.85 0 0 0-1.2 1.2l2 2c.33.33.87.33 1.2 0z" clip-rule="evenodd"/></symbol>
<symbol viewBox="0 0 5 8" fill="none" id="chevron-right">
<path d="M0.267241 6.43737C0.154041 6.55623 0.0917955 6.71463 0.0937968 6.87876C0.0957981 7.04289 0.161887 7.19973 0.277952 7.3158C0.394017 7.43186 0.55086 7.49795 0.714988 7.49995C0.879117 7.50195 1.03752 7.43971 1.15638 7.32651L3.85493 4.62796C3.93752 4.54547 4.00304 4.44751 4.04775 4.33968C4.09245 4.23185 4.11546 4.11626 4.11546 3.99953C4.11546 3.8828 4.09245 3.76721 4.04775 3.65938C4.00304 3.55155 3.93752 3.45359 3.85493 3.37109L1.15638 0.673492C1.03752 0.560291 0.879116 0.498046 0.714988 0.500047C0.550859 0.502048 0.394017 0.568137 0.277952 0.684202C0.161887 0.800267 0.0957978 0.95711 0.0937965 1.12124C0.0917953 1.28537 0.154041 1.44377 0.267241 1.56263L2.70272 4L0.267241 6.43737Z" fill="currentColor"/>
</symbol>
<symbol fill="none" viewBox="0 0 16 16" id="cloud"><path fill="currentColor" d="M7.55 7.56a.64.64 0 0 1 .66-.16l6.37 2.09a.64.64 0 0 1-.02 1.21c-.9.26-1.7.94-2.34 1.75a8.57 8.57 0 0 0-1.26 2.2.64.64 0 0 1-1.2 0L7.41 8.22a.64.64 0 0 1 .14-.66Zm2.9 5.24c.21-.37.47-.76.77-1.14a7.4 7.4 0 0 1 1.5-1.45l-3.66-1.2 1.38 3.8Zm-6.31-.24a.64.64 0 0 1-.9-.9l.9.9Zm.48-2.25a.64.64 0 0 1 .9.9l-1.38 1.35-.9-.9 1.38-1.35ZM4.1 7.28h.07a.64.64 0 0 1 0 1.27H2.08a.64.64 0 0 1 0-1.27H4.1Zm7.17-1.8a.64.64 0 0 1-.85-.93l.85.94ZM3.38 3.32c.23-.23.6-.25.85-.05l.05.04 1.23 1.2.05.05a.64.64 0 0 1-.89.9l-.05-.04-1.23-1.2-.04-.05a.64.64 0 0 1 .03-.85Zm8.29.11a.64.64 0 0 1 .8.98l-1.2 1.09-.85-.94 1.2-1.09.05-.04ZM7.98 1.54c.35 0 .63.3.63.65l-.03 1.55a.64.64 0 0 1-1.27-.02l.02-1.56c.01-.35.3-.63.65-.62Z"/></symbol>
<symbol fill="none" viewBox="0 0 20 20" id="code"><path fill="currentColor" d="M17.9 10v.7c-.5 0-.9.1-1 .4-.3.2-.4.6-.4 1.2v1.5c0 .5 0 1-.2 1.3a2 2 0 0 1-.4.9c-.3.2-.5.4-.9.5l-1.2.1v-1.2c.4 0 .7 0 .9-.2.2-.1.3-.3.4-.6l.1-1v-1.8l.1-.7c0-.3.2-.5.4-.6l.8-.4 1.4-.2Zm-4-6.7 1.1.2c.4 0 .6.2.9.5l.4.8c.2.4.2.8.2 1.4v1.5c0 .5.1 1 .3 1.2.2.2.6.3 1.1.3v.8l-1.4-.1a2 2 0 0 1-.8-.4l-.4-.6V6.3l-.2-1a1 1 0 0 0-.4-.5c-.2-.2-.5-.2-.9-.2V3.3Zm4 6v1.4h-1.3V9.2H18ZM8.3 6.5 10 9.2l1.6-2.7H13L10.8 10l2.2 3.4h-1.5l-1.6-2.6-1.6 2.6H6.8L9 10 6.8 6.5h1.5ZM1.9 10v-.8c.5 0 .8-.1 1-.3.3-.3.4-.7.4-1.2V6.2l.1-1.4L4 4c.2-.3.5-.4.8-.5L6 3.3v1.3c-.3 0-.6 0-.8.2a1 1 0 0 0-.4.5l-.2 1v2.6l-.5.6a2 2 0 0 1-.8.4L2 10Zm4 6.6-1.2-.1L4 16a2 2 0 0 1-.5-.9l-.1-1.3v-1.5c0-.6-.1-1-.4-1.2-.2-.3-.5-.4-1-.4V10c.5 0 1 0 1.3.2.4 0 .7.2.8.4.2.1.4.3.4.6l.1.7v1.9c0 .4 0 .7.2 1 0 .2.2.4.4.5l.8.2v1.2Zm-4-5.9V9.2H3v1.5H2Z"/></symbol>
<symbol fill="none" viewBox="0 0 16 16" id="copy"><g transform="translate(16,0) scale(-1,1)"><path stroke="#939393" stroke-linecap="round" stroke-linejoin="round" stroke-width="1.33" d="M5.33 5.33v-1.6c0-.37 0-.56.08-.7a.67.67 0 0 1 .29-.29c.14-.07.33-.07.7-.07h5.87c.37 0 .56 0 .7.07.13.06.23.17.3.3.06.13.06.32.06.7V9.6c0 .37 0 .56-.07.7a.67.67 0 0 1-.29.3c-.14.07-.33.07-.7.07h-1.6m0-4.27v5.87c0 .37 0 .56-.07.7a.67.67 0 0 1-.3.3c-.14.06-.33.06-.7.06H3.73c-.37 0-.56 0-.7-.07a.67.67 0 0 1-.29-.29c-.07-.14-.07-.33-.07-.7V6.4c0-.37 0-.56.07-.7a.67.67 0 0 1 .3-.3c.13-.07.32-.07.7-.07H9.6c.37 0 .56 0 .7.08.13.06.23.16.3.29.07.14.07.33.07.7Z"/></g></symbol>
<symbol fill="none" viewBox="0 0 16 16" id="course-new"><path fill="currentColor" d="M4.92 6.12c.2-.03.4 0 .59.07.18.08.35.22.46.38a2.44 2.44 0 0 0 4.06 0c.12-.16.28-.3.46-.37a1.05 1.05 0 0 1 1.13.18 1.13 1.13 0 0 1 .35 1.12c-.05.2-.15.39-.29.54a1.05 1.05 0 0 1-1.1.27.69.69 0 0 0-.55.05.73.73 0 0 0-.35.42.76.76 0 0 0 .04.56c.09.18.24.3.42.37a1.15 1.15 0 0 1 .7 1.4H8.75a1.2 1.2 0 0 1-.04-.33c0-.2-.08-.38-.21-.52a.7.7 0 0 0-.5-.21.7.7 0 0 0-.5.21.75.75 0 0 0-.21.52c0 .11-.02.23-.05.33H5.16a1.17 1.17 0 0 1 .21-1.06c.13-.16.3-.28.5-.34a.76.76 0 0 0 .46-.93.73.73 0 0 0-.36-.42.69.69 0 0 0-.54-.05 1.06 1.06 0 0 1-1.11-.28 1.14 1.14 0 0 1-.27-1.14c.07-.2.18-.38.33-.51.16-.14.34-.23.54-.26Z"/><path fill="currentColor" d="M8 3.91c.6 0 1.09.5 1.09 1.13 0 .62-.49 1.13-1.09 1.13-.6 0-1.09-.5-1.09-1.13 0-.62.49-1.13 1.1-1.13Z"/><path fill="currentColor" fill-rule="evenodd" d="M15.2 1.2c.88 0 1.6.72 1.6 1.6v9.6c0 .88-.72 1.6-1.6 1.6h-4v1.6H4.8V14h-4a1.6 1.6 0 0 1-1.6-1.6V2.8c0-.88.72-1.6 1.6-1.6h14.4ZM.8 12.4h14.4V2.8H.8v9.6Z" clip-rule="evenodd"/></symbol>
<symbol data-ignore="true" viewBox="0 0 22 18" fill="none" id="course"><path d="M7.15 6.151c.249-.04.503-.009.735.091s.434.266.58.477c.292.413.674.75 1.114.982a3.05 3.05 0 0 0 2.845 0c.44-.232.822-.569 1.113-.982.148-.21.35-.375.581-.475a1.32 1.32 0 0 1 1.405.232c.191.169.333.39.41.636.078.248.088.513.029.766a1.4 1.4 0 0 1-.361.668 1.35 1.35 0 0 1-.646.374c-.244.06-.5.05-.74-.031a.86.86 0 0 0-.676.055.9.9 0 0 0-.44.535.95.95 0 0 0 .054.702c.107.216.293.38.516.456h-.004c.239.08.452.228.615.425a1.44 1.44 0 0 1 .266 1.329h-2.603a1.5 1.5 0 0 1-.06-.412.94.94 0 0 0-.26-.649.87.87 0 0 0-.626-.27.87.87 0 0 0-.627.27.94.94 0 0 0-.259.649q-.001.211-.061.412h-2.6a1.44 1.44 0 0 1 .265-1.33 1.36 1.36 0 0 1 .614-.424.9.9 0 0 0 .518-.456.95.95 0 0 0 .054-.702.9.9 0 0 0-.44-.535.86.86 0 0 0-.676-.056 1.3 1.3 0 0 1-.74.03 1.35 1.35 0 0 1-.646-.374 1.43 1.43 0 0 1-.36-.669 1.46 1.46 0 0 1 .027-.766c.078-.247.221-.468.413-.637a1.34 1.34 0 0 1 .671-.32" fill="currentColor"/><path d="M11.001 3.39c.752 0 1.361.633 1.361 1.412s-.61 1.41-1.361 1.41c-.752 0-1.362-.631-1.362-1.41 0-.78.61-1.411 1.362-1.411" fill="currentColor"/><path fill-rule="evenodd" clip-rule="evenodd" d="M20 0a2 2 0 0 1 2 2v12a2 2 0 0 1-2 2h-5v2H7v-2H2a2 2 0 0 1-2-2V2a2 2 0 0 1 2-2zM2 14h18V2H2z" fill="currentColor"/></symbol>
<symbol fill="none" viewBox="0 0 16 16" id="cursor"><g clip-path="url(#a)"><path fill="#555" d="m7.95 14.48 5.64-3.25L7.95 8 2.3 11.23l5.64 3.25Z"/><path fill="#272727" d="M13.59 11.23V4.74L7.95 1.5v6.49l5.64 3.24Z"/><path fill="#3B3B3B" d="M7.95 1.5 2.3 4.74v6.5l5.64-3.25V1.5Z"/><path fill="#BCBCBC" d="m13.59 4.74-5.64 9.74v-6.5l5.64-3.24Z"/><path fill="#fff" d="M13.59 4.74 7.95 8 2.3 4.74h11.3Z"/></g><defs><clipPath id="a"><path fill="#fff" d="M1.5 1.5h13v13h-13z"/></clipPath></defs></symbol>
<symbol fill="none" viewBox="0 0 16 16" id="customers-new"><path fill="currentColor" fill-rule="evenodd" d="M12.94 4.77c.95 0 1.71.77 1.71 1.71v7.24h.2a.74.74 0 1 1 0 1.48H1.15a.74.74 0 1 1 0-1.48h.62V2.68A1.9 1.9 0 0 1 3.66.8h5.32c1.04 0 1.88.84 1.88 1.88v2.09h2.08ZM3.26 2.68c0-.22.18-.4.4-.4h5.32c.22 0 .4.18.4.4v11.04H3.26V2.68Z" clip-rule="evenodd"/></symbol>
<symbol fill="none" viewBox="0 0 16 16" id="database"><path fill="currentColor" fill-rule="evenodd" d="M2 3.5v1c0 .56.45 1.08 1.2 1.5l.17.09C4.47 6.65 6.14 7 8 7c1.96 0 3.7-.4 4.8-1 .75-.42 1.2-.94 1.2-1.5v-1C14 2.12 11.31 1 8 1S2 2.12 2 3.5Zm.09 3.58c-.06.13-.09.28-.09.42v1c0 .56.45 1.08 1.2 1.5 1.1.6 2.84 1 4.8 1a10.74 10.74 0 0 0 4.8-1c.75-.42 1.2-.94 1.2-1.5v-1c0-.14-.03-.29-.09-.42-.34.22-.7.41-1.09.57-1.31.55-3.01.85-4.82.85-1.8 0-3.51-.3-4.82-.85a6.51 6.51 0 0 1-1.1-.57Zm0 4c-.06.13-.09.28-.09.42v1C2 13.88 4.69 15 8 15s6-1.12 6-2.5v-1c0-.14-.03-.29-.09-.42-.34.22-.7.41-1.09.57-1.31.55-3.01.85-4.82.85-1.8 0-3.51-.3-4.82-.85a6.5 6.5 0 0 1-1.1-.57Z" clip-rule="evenodd"/></symbol>
<symbol fill="currentColor" class="w-4 h-4" viewBox="0 0 16 16" id="discord"><path d="M13.54 2.9a13.2 13.2 0 0 0-3.25-1 .05.05 0 0 0-.05.02c-.14.25-.3.58-.41.83a12.2 12.2 0 0 0-3.66 0 8 8 0 0 0-.41-.83.05.05 0 0 0-.05-.02c-1.13.19-2.22.53-3.26 1a.04.04 0 0 0-.02.03 13.5 13.5 0 0 0-2.36 9.1l.02.04a13.3 13.3 0 0 0 4 2.02.05.05 0 0 0 .05-.02q.46-.63.82-1.33a.05.05 0 0 0-.01-.06h-.02a9 9 0 0 1-1.25-.6.05.05 0 0 1-.02-.07l.01-.02.25-.2a.05.05 0 0 1 .05 0 9.46 9.46 0 0 0 8.04 0 .05.05 0 0 1 .06 0l.25.2a.05.05 0 0 1 0 .09 8 8 0 0 1-1.26.59.05.05 0 0 0-.03.03.05.05 0 0 0 0 .04c.25.47.52.91.82 1.33a.05.05 0 0 0 .06.02 13.2 13.2 0 0 0 4-2.02.05.05 0 0 0 .02-.04 13.4 13.4 0 0 0-2.36-9.1.03.03 0 0 0-.02-.02m-8.2 7.3c-.8 0-1.44-.72-1.44-1.6s.64-1.62 1.44-1.62c.8 0 1.45.73 1.44 1.61 0 .89-.64 1.61-1.44 1.61m5.31 0c-.78 0-1.43-.72-1.43-1.6s.63-1.62 1.43-1.62c.81 0 1.45.73 1.44 1.61 0 .89-.63 1.61-1.44 1.61"/></symbol>
<symbol fill="none" viewBox="0 0 14 14" id="embed"><path fill="currentColor" fill-rule="evenodd" d="M12.85 0C13.5 0 14 .5 14 1.15v1.7C14 3.5 13.5 4 12.85 4h-1.7C10.5 4 10 3.5 10 2.85v-1.7C10 .5 10.5 0 11.15 0h1.7Zm0 5C13.5 5 14 5.5 14 6.15v1.7C14 8.5 13.5 9 12.85 9h-1.7C10.5 9 10 8.5 10 7.85v-1.7C10 5.5 10.5 5 11.15 5h1.7Zm-5-5C8.5 0 9 .5 9 1.15v1.7C9 3.5 8.5 4 7.85 4h-1.7C5.5 4 5 3.5 5 2.85v-1.7C5 .5 5.5 0 6.15 0h1.7Zm-5 0C3.5 0 4 .5 4 1.15v1.7C4 3.5 3.5 4 2.85 4h-1.7C.5 4 0 3.5 0 2.85v-1.7C0 .5.5 0 1.15 0h1.7Zm10 10c.64 0 1.15.5 1.15 1.15v1.7c0 .64-.5 1.15-1.15 1.15h-1.7c-.64 0-1.15-.5-1.15-1.15v-1.7c0-.64.5-1.15 1.15-1.15h1.7Zm-7.83.05L2.5 12.58a1.2 1.2 0 0 1-1.69 0 1.2 1.2 0 0 1 0-1.69l2.53-2.53-.85-.85c-.45-.46-.3-.92.35-1.01L6.37 6c.66-.1 1.11.35 1.02 1l-.5 3.55c-.1.66-.55.81-1.01.35l-.86-.85Z" clip-rule="evenodd"/></symbol>
<symbol viewBox="0 0 24 24" fill="none" id="eval">
  <path d="M12.0005 5.27327C14.0185 5.27328 15.92 5.78134 17.5823 6.67635L18.9616 5.57086L20.0941 6.98379L18.7347 8.07311L21.6318 16.2895L20.9806 16.6656C18.9304 17.8492 16.4044 17.8493 14.3542 16.6656L13.7032 16.2895L16.5604 8.18452C15.1943 7.48135 13.6449 7.0841 12.0005 7.08408C10.3559 7.08408 8.80616 7.48141 7.43989 8.18477L10.2958 16.2897L9.6448 16.6656C7.59463 17.8493 5.06863 17.8493 3.01845 16.6656L2.36719 16.2895L5.26429 8.07715L3.88672 6.98733L5.0104 5.56732L6.41474 6.67812C8.07791 5.78184 9.98097 5.27327 12.0005 5.27327ZM4.59458 15.4177C5.71172 15.8499 6.95154 15.8499 8.06867 15.4177L6.33289 10.4912L4.59458 15.4177ZM15.9303 15.4177C17.0474 15.8499 18.2871 15.8498 19.4042 15.4177L17.6674 10.4912L15.9303 15.4177Z" fill="currentColor"/>
  <path d="M12.9049 3.63574V18.5537H16.4896V20.3645H7.51541V18.5537H11.0941V3.63574H12.9049Z" fill="currentColor"/>
</symbol>
<symbol viewBox="0 0 15 14" fill="none" id="evals">
  <path opacity="0.87" fill-rule="evenodd" clip-rule="evenodd" d="M4.875 0.875C2.942 0.875 1.375 2.442 1.375 4.375V9.625C1.375 11.558 2.942 13.125 4.875 13.125H10.125C12.058 13.125 13.625 11.558 13.625 9.625V4.375C13.625 2.442 12.058 0.875 10.125 0.875H4.875ZM7.256 3.75721C7.17818 3.48487 6.93442 3.29318 6.6514 3.28178C6.36838 3.27039 6.10999 3.44186 6.01053 3.70708L4.85772 6.78125H3.5625C3.20007 6.78125 2.90625 7.07507 2.90625 7.4375C2.90625 7.79994 3.20007 8.09375 3.5625 8.09375H5.3125C5.58605 8.09375 5.83091 7.92407 5.92697 7.66793L6.54071 6.03128L7.744 10.2427C7.81834 10.503 8.0448 10.6909 8.31427 10.7159C8.58373 10.741 8.84094 10.5981 8.96197 10.356L10.0931 8.09375H11.4375C11.7999 8.09375 12.0937 7.79994 12.0937 7.4375C12.0937 7.07507 11.7999 6.78125 11.4375 6.78125H9.6875C9.43891 6.78125 9.21169 6.9217 9.10053 7.14402L8.54252 8.26004L7.256 3.75721Z" fill="currentColor"/>
</symbol>
<symbol fill="none" viewBox="0 0 37 37" id="github"><path fill="currentColor" fill-rule="evenodd" d="M18.62.97C8.78.97.82 9.12.82 19.2A18.2 18.2 0 0 0 13 36.5c.88.18 1.2-.4 1.2-.88l-.02-3.38c-4.95 1.09-5.99-2.17-5.99-2.17-.8-2.12-1.97-2.66-1.97-2.66-1.62-1.12.12-1.12.12-1.12 1.8.12 2.74 1.87 2.74 1.87 1.59 2.78 4.15 2 5.18 1.51a3.93 3.93 0 0 1 1.12-2.44c-3.94-.42-8.1-2-8.1-9 0-1.99.7-3.62 1.83-4.89-.18-.45-.8-2.32.17-4.82 0 0 1.5-.49 4.9 1.87a16.84 16.84 0 0 1 8.9 0c3.38-2.36 4.88-1.87 4.88-1.87.98 2.5.36 4.37.18 4.82a7.07 7.07 0 0 1 1.83 4.9c0 7-4.16 8.54-8.13 8.99.64.57 1.2 1.66 1.2 3.38 0 2.44-.03 4.4-.03 5.01 0 .48.33 1.06 1.21.88A18.2 18.2 0 0 0 36.4 19.2C36.42 9.12 28.43.97 18.62.97Z" clip-rule="evenodd"/></symbol>
<symbol fill="none" viewBox="0 0 32 33" id="globe"><path fill="currentColor" d="M6.2 21c1.1 2.5 3.3 4.4 5.9 5.4-.8-1-1.5-2.3-2-4a25.1 25.1 0 0 1-4-1.4Zm20.2-4.6a11 11 0 0 0-2.4-7 13.5 13.5 0 0 1-2.5 1.5c.4 1.3.7 2.7.8 4.4a1 1 0 0 1-2 .1c0-1.5-.3-2.7-.6-3.8a13.4 13.4 0 0 1-7.7.1 19 19 0 0 0-.3 9l2 .4 1 .1h.1a1 1 0 0 1 0 2h-.3L14 23l-1.7-.2c1 2.4 2.3 3.4 3 3.9.4.2.5.5.6.7a1.2 1.2 0 0 1-.3 1.1c-.2.2-.5.3-.8.3h-.1A12.6 12.6 0 0 1 3.2 16.4c0-3.4 1.2-6.7 3.5-9l.5-.4c2.2-2 5.3-3.1 8.5-3.1 3.5 0 6.8 1.2 9 3.5l.5.5c2 2.2 3 5.3 3 8.5a1 1 0 1 1-1.8 0ZM15.8 6l-.3.3a8 8 0 0 0-1.7 1.6L12.6 10a11.1 11.1 0 0 0 6.5 0c-.5-1-1-1.8-1.5-2.4A7.4 7.4 0 0 0 15.8 6Zm-3.2.3a10 10 0 0 0-3.7 1.9 11.7 11.7 0 0 0 1.9 1.1 12.6 12.6 0 0 1 1.8-3Zm6.5.1c.6.7 1.3 1.7 1.8 2.8a12.3 12.3 0 0 0 1.7-1c-1-.8-2.2-1.4-3.5-1.8Zm-14 10.1c0 .7 0 1.4.2 2l.4.2a21.4 21.4 0 0 0 4 1.7A22.5 22.5 0 0 1 10 11a14 14 0 0 1-2.6-1.6 11 11 0 0 0-2.4 7Z"/><path fill="currentColor" d="M17 19.4a1 1 0 0 1 1.3-1.2l9.9 3.3c.7.2.8 1.3.1 1.7l-1.9 1.1c-1.3.9-2.5 2-3.3 3.4l-1 1.8a1 1 0 0 1-1.8-.2l-3.3-10Z"/></symbol>
<symbol fill="none" viewBox="0 0 24 24" id="guardrails"><path fill="currentColor" d="M18.02 21.74h-4.08c-.4 0-.75-.24-.96-.59a3.78 3.78 0 0 0-2.91-1.86 2.2 2.2 0 0 1-1.6-.89l-.13-.16a71.7 71.7 0 0 1-1.84-2.2c-.4-.52-1-.92-1.26-1.06l-1.7-.94c-.24-.15-.68-.6-.4-1.16.27-.57.9-.61 1.19-.56l1.81.45a1 1 0 0 1 .56.36c.46.58 1.15 1.4 1.38 1.43.22.03.44-.27.57-.52a.8.8 0 0 0 .09-.38v-1.85a1 1 0 0 0-.11-.46L6.05 6.32c-.18-.3-.37-1 .26-1.45.54-.38 1.07-.2 1.35 0 .09.06.15.14.2.24.7 1.35 1.92 4.03 2.01 4.15.13.16.49.25.7.18.13-.04.2-.22.24-.35l.02-.16V3.28c.03-.34.27-1.02 1.01-1.02.65 0 .99.44 1.11.75.04.08.05.16.05.25v5.33c0 .08 0 .17.02.25.04.19.12.44.48.54.45.12.79-.22.86-.42l1.35-4.84a.74.74 0 0 1 .08-.18c.2-.36.7-.89 1.37-.71.71.19.74 1.03.67 1.43l-1.48 4.82c-.06.23-.05.54.31.75.36.2.76.06.86-.06l1.86-2.78a.63.63 0 0 1 .2-.21.87.87 0 0 1 1.09.14c.41.42.28.86.14 1.09l-.1.13c-.16.27-.76 1.38-2.4 3.8-.13.18-.2.4-.19.62a9.63 9.63 0 0 1-.83 4.1c-.18.38-.16.84.09 1.17l1.43 1.9a1 1 0 0 1-.8 1.61Z"/></symbol>
<symbol fill="none" viewBox="0 0 14.214 13.5203" id="harness">
  <path fill="currentColor" d="M8.76172 2.50498C8.76146 1.62208 8.09044 0.89591 7.23047 0.808692L7.05664 0.799902C6.11489 0.799902 5.35086 1.56329 5.35059 2.50498C5.35059 2.89647 5.48326 3.25721 5.70508 3.54502C5.913 3.81475 6.09961 4.12145 6.09961 4.46201L6.0918 4.58994C6.01974 5.17693 5.45942 5.5843 4.87891 5.47178L4.75391 5.43955L4.66992 5.41221C4.33333 5.30284 4.08881 5.02137 3.87891 4.73643C3.60735 4.36783 3.19107 4.11203 2.71387 4.05381L2.50488 4.04209C1.56319 4.04232 0.799855 4.80543 0.799805 5.74717L0.808594 5.92197C0.896137 6.78162 1.62218 7.45203 2.50488 7.45225C2.67131 7.45223 2.83243 7.42846 2.98438 7.38389L3.13379 7.33311C3.46957 7.19947 3.83891 7.09836 4.18262 7.21006C4.84474 7.42541 5.10441 8.22382 4.69531 8.78721L4.63867 8.86436C4.43553 9.14395 4.1038 9.28994 3.77734 9.40342L3.6543 9.45127C3.05226 9.71452 2.63184 10.3156 2.63184 11.0147L2.64062 11.1886C2.72793 12.0486 3.45391 12.7197 4.33691 12.7198C5.21998 12.7198 5.9469 12.0486 6.03418 11.1886L6.04297 11.0147L6.03613 10.8644C6.00486 10.5091 6.01895 10.1304 6.22852 9.84189C6.62386 9.29776 7.43572 9.29775 7.83105 9.84189L8.00391 10.0802C8.22032 10.3784 8.26106 10.7623 8.28613 11.13C8.29617 11.2772 8.32543 11.4263 8.37598 11.5724C8.66474 12.4066 9.53681 12.8733 10.3779 12.6749L10.5459 12.6261C11.436 12.3181 11.9075 11.3463 11.5996 10.4562C11.4261 9.95527 11.0429 9.58652 10.582 9.41514L10.3799 9.35459C10.0027 9.2651 9.61165 9.12817 9.38379 8.81455C8.99113 8.27351 9.20044 7.5206 9.78711 7.24717L9.90918 7.19932L9.94141 7.18857C10.3134 7.06775 10.713 7.18589 11.0762 7.33115C11.2228 7.38982 11.3795 7.42865 11.543 7.44443L11.709 7.45225C12.5917 7.45209 13.3177 6.78165 13.4053 5.92197L13.4141 5.74717C13.414 4.86409 12.7429 4.13813 11.8828 4.05088L11.709 4.04209C11.1776 4.0421 10.7033 4.28512 10.3906 4.66611L10.2061 4.88096C10.0155 5.09112 9.80141 5.2785 9.53418 5.36533L9.26562 5.45225L9.14453 5.4835C8.58118 5.59278 8.03769 5.19767 7.96777 4.62803L7.95996 4.504C7.95996 4.24625 8.06979 4.00916 8.2168 3.79502L8.37305 3.58896C8.61583 3.29448 8.76172 2.91646 8.76172 2.50498ZM9.56152 2.50498C9.56152 3.10911 9.34665 3.66544 8.99023 4.09775C8.90008 4.20713 8.83867 4.29701 8.80078 4.37314C8.76444 4.44619 8.75977 4.48658 8.75977 4.504C8.76005 4.6379 8.89114 4.73291 9.01855 4.6915L9.28711 4.60361C9.39302 4.56914 9.52182 4.46248 9.77148 4.1583C10.2295 3.6002 10.9279 3.24132 11.709 3.24131C13.0926 3.24147 14.2138 4.36364 14.2139 5.74717C14.2138 7.13079 13.0926 8.25287 11.709 8.25303C11.3821 8.25302 11.0677 8.18962 10.7793 8.07432C10.4216 7.93122 10.2644 7.92466 10.1885 7.94932L10.1562 7.96006C9.99487 8.01258 9.9315 8.2075 10.0312 8.34482C10.0474 8.36699 10.0847 8.40448 10.1768 8.44932C10.2726 8.49601 10.3993 8.53687 10.5654 8.57627C11.3692 8.76707 12.0652 9.35355 12.3564 10.1954C12.8084 11.5028 12.1151 12.9295 10.8076 13.3819C9.50002 13.8342 8.07254 13.1408 7.62012 11.8331C7.54628 11.6195 7.50307 11.4016 7.48828 11.1847C7.46185 10.797 7.42077 10.6384 7.35645 10.5499L7.18359 10.3126C7.10771 10.2082 6.95186 10.2082 6.87598 10.3126C6.86599 10.3264 6.84536 10.3619 6.83301 10.4454C6.82006 10.5331 6.82005 10.6469 6.83301 10.794C6.83941 10.8668 6.84277 10.9406 6.84277 11.0147C6.84253 12.3982 5.7205 13.5196 4.33691 13.5196C2.95332 13.5195 1.83228 12.3982 1.83203 11.0147C1.83203 9.918 2.53616 8.98762 3.51465 8.64756C3.8345 8.53637 3.94688 8.45541 3.99121 8.39463L4.04785 8.31748C4.13771 8.1938 4.08079 8.01828 3.93555 7.9708C3.91463 7.964 3.86943 7.95579 3.78027 7.96982C3.68712 7.98453 3.57318 8.01917 3.42969 8.07627C3.14294 8.19039 2.83003 8.25301 2.50488 8.25303C1.12135 8.2528 2.88615e-05 7.13075 0 5.74717C7.34851e-05 4.36368 1.12132 3.24153 2.50488 3.24131C3.33351 3.24137 4.06877 3.6446 4.52344 4.26182C4.72946 4.54149 4.84368 4.62667 4.91699 4.65049L5.00098 4.67881C5.14811 4.72662 5.29955 4.61664 5.2998 4.46201C5.2998 4.4408 5.29416 4.39679 5.25781 4.32041C5.22003 4.24107 5.15943 4.14865 5.07129 4.03428C4.74535 3.61144 4.55078 3.07939 4.55078 2.50498C4.55106 1.12152 5.67301 9.77516e-05 7.05664 9.77516e-05C8.44008 0.000262507 9.56125 1.12157 9.56152 2.50498Z"/>
  <path fill="currentColor" d="M4.99159 11.0254C4.99159 11.4065 4.68261 11.7155 4.30146 11.7155C3.92031 11.7155 3.61133 11.4065 3.61133 11.0254C3.61133 10.6442 3.92031 10.3353 4.30146 10.3353C4.68261 10.3353 4.99159 10.6442 4.99159 11.0254Z"/>
  <path fill="currentColor" d="M3.23144 5.74101C3.23144 6.12216 2.92245 6.43115 2.5413 6.43115C2.16015 6.43115 1.85117 6.12216 1.85117 5.74101C1.85117 5.35986 2.16015 5.05088 2.5413 5.05088C2.92245 5.05088 3.23144 5.35986 3.23144 5.74101Z"/>
  <path fill="currentColor" d="M12.4408 5.74101C12.4408 6.12216 12.1318 6.43115 11.7507 6.43115C11.3695 6.43115 11.0605 6.12216 11.0605 5.74101C11.0605 5.35986 11.3695 5.05088 11.7507 5.05088C12.1318 5.05088 12.4408 5.35986 12.4408 5.74101Z"/>
  <path fill="currentColor" d="M10.6939 11.1191C10.6939 11.5003 10.385 11.8093 10.0038 11.8093C9.62266 11.8093 9.31367 11.5003 9.31367 11.1191C9.31367 10.738 9.62266 10.429 10.0038 10.429C10.385 10.429 10.6939 10.738 10.6939 11.1191Z"/>
</symbol>
<symbol fill="none" viewBox="0 0 12 14" id="input"><path fill="currentColor" d="M6.34 7a.5.5 0 0 1-.88 0L2.49 1.64A.5.5 0 0 1 3.02.9l2.78.54a.5.5 0 0 0 .19 0L8.77.89a.5.5 0 0 1 .53.74L6.34 7Z"/><path fill="currentColor" fill-rule="evenodd" d="M4.28 6.93c-.08-.13-.26-.14-.32 0a2.26 2.26 0 1 0 3.95-.14.18.18 0 0 0-.32 0l-.38.7a1.5 1.5 0 0 1-2.63 0l-.3-.56Zm.78-1.05a.19.19 0 0 0-.08.26l.48.87a.5.5 0 0 0 .87 0l.5-.92c.06-.1.02-.23-.08-.27a2.25 2.25 0 0 0-1.69.06Z" clip-rule="evenodd"/><path fill="currentColor" fill-rule="evenodd" d="M3.52 3.5c.16.28.52.39.83.27a4.47 4.47 0 0 1 3.13-.04c.3.1.66 0 .82-.28.16-.3.05-.68-.26-.8a5.66 5.66 0 0 0-4.27.06c-.3.13-.41.5-.25.78Zm5.93.97a.68.68 0 0 0 .07.74 4.48 4.48 0 1 1-7.18.1c.16-.21.2-.5.07-.73-.2-.35-.69-.43-.94-.1a5.68 5.68 0 1 0 8.9-.12c-.25-.32-.73-.24-.92.11Z" clip-rule="evenodd"/></symbol>
<symbol fill="none" viewBox="0 0 24 24" id="integration"><path fill="currentColor" d="M18.2 16.15a.95.95 0 1 1 1.6 1.03 9.55 9.55 0 0 1-16.07 0 .95.95 0 0 1 1.59-1.03 7.66 7.66 0 0 0 12.88 0Zm-6.44-13.7a9.55 9.55 0 0 1 8.03 4.37.95.95 0 0 1-1.59 1.03 7.66 7.66 0 0 0-12.88 0 .95.95 0 0 1-1.59-1.03 9.55 9.55 0 0 1 8.03-4.38Zm4.94 6.47a.95.95 0 0 0-1.33 0l-2.41 2.41a.95.95 0 0 0 0 1.34l2.41 2.41a.95.95 0 0 0 1.34-1.34l-.8-.8h4.8a.95.95 0 0 0 0-1.89h-4.8l.8-.8a.95.95 0 0 0 0-1.33Zm-9.88 6.16c.37.37.97.37 1.34 0l2.41-2.41a.95.95 0 0 0 0-1.34l-2.4-2.41a.95.95 0 0 0-1.35 1.34l.8.8h-4.8a.95.95 0 0 0 0 1.88h4.8l-.8.8a.95.95 0 0 0 0 1.34Z"/></symbol>
<symbol viewBox="0 0 14 15" fill="none" id="latency">
  <path d="M2.40625 7.6283C2.40625 5.09124 4.46294 3.03455 7 3.03455C7.68497 3.03455 8.33493 3.18446 8.91885 3.45328V2.04074C8.31722 1.83418 7.67171 1.72205 7 1.72205C3.73807 1.72205 1.09375 4.36636 1.09375 7.6283C1.09375 10.8902 3.73807 13.5345 7 13.5345C10.2619 13.5345 12.9063 10.8902 12.9063 7.6283H11.5938C11.5938 10.1654 9.53706 12.222 7 12.222C4.46294 12.222 2.40625 10.1654 2.40625 7.6283Z" fill="currentColor"/>
  <path d="M10.8334 5.76028C10.6016 5.76028 10.4137 5.57237 10.4137 5.34057V1.77024C10.4137 1.42413 10.6943 1.14355 11.0404 1.14355C11.3865 1.14355 11.6671 1.42413 11.6671 1.77024V4.43026C11.6671 4.52102 11.7406 4.59459 11.8314 4.59459H13.0773C13.3992 4.59459 13.6602 4.85554 13.6602 5.17744C13.6602 5.49933 13.3992 5.76028 13.0773 5.76028H10.8334Z" fill="currentColor"/>
  <path d="M7.67163 4.93643C7.67163 4.574 7.37782 4.28018 7.01538 4.28018C6.65294 4.28018 6.35913 4.574 6.35913 4.93643V7.88842L7.8449 9.82979C8.06517 10.1176 8.47707 10.1724 8.76488 9.9521C9.0527 9.73182 9.10746 9.31993 8.88719 9.03211L7.67163 7.44381V4.93643Z" fill="currentColor"/>
</symbol>
<symbol viewBox="0 0 14 15" fill="none" id="link-external">
  <path d="M11.375 3.125H8.19327M11.375 3.125V6.33725M11.375 3.125L6.42728 8.07272M5.08986 3.125H3.0625C2.82088 3.125 2.625 3.32088 2.625 3.5625V11.4375C2.625 11.6791 2.82088 11.875 3.0625 11.875H10.9375C11.1791 11.875 11.375 11.6791 11.375 11.4375V9.61291" stroke="#939393" stroke-width="1.3125" stroke-linecap="round" stroke-linejoin="round"/>
</symbol>
<symbol viewBox="0 0 256 256" fill="currentColor" id="linkedin"><path d="M218 218h-38v-59c0-14 0-33-20-33-19 0-22 16-22 32v60h-38V96h36v17h1a40 40 0 0 1 36-20c38 0 45 25 45 58v67ZM57 79a22 22 0 1 1 22-22 22 22 0 0 1-22 22m19 139H38V96h38v122ZM237 0H19C9 0 0 8 0 18v220c0 10 9 18 19 18h218c10 0 19-8 19-18V18c0-10-9-18-19-18"/></symbol>
<symbol fill="none" viewBox="0 0 16 17" id="list"><path fill="currentColor" d="M1.85 2.97c0-.3 0-.46.05-.57a.5.5 0 0 1 .2-.24c.09-.06.2-.06.45-.06h10.9c.24 0 .36 0 .46.06a.5.5 0 0 1 .19.24c.05.11.05.26.05.57v.43c0 .3 0 .46-.05.57a.5.5 0 0 1-.2.24c-.09.06-.2.06-.45.06H2.55c-.24 0-.36 0-.46-.06a.5.5 0 0 1-.19-.24c-.05-.11-.05-.26-.05-.57v-.43Zm0 9.73c0-.3 0-.46.05-.58a.5.5 0 0 1 .2-.23c.09-.06.2-.06.45-.06h10.9c.24 0 .36 0 .46.06a.5.5 0 0 1 .19.23c.05.12.05.27.05.58v.43c0 .3 0 .46-.05.57a.5.5 0 0 1-.2.24c-.09.06-.2.06-.45.06H2.55c-.24 0-.36 0-.46-.06a.5.5 0 0 1-.19-.24c-.05-.11-.05-.27-.05-.57v-.43Zm0-4.85c0-.3 0-.46.05-.57a.5.5 0 0 1 .2-.24c.09-.06.2-.06.45-.06h10.9c.24 0 .36 0 .46.06a.5.5 0 0 1 .19.24c.05.11.05.27.05.57v.43c0 .3 0 .46-.05.58a.5.5 0 0 1-.2.23c-.09.06-.2.06-.45.06H2.55c-.24 0-.36 0-.46-.06a.5.5 0 0 1-.19-.23c-.05-.12-.05-.27-.05-.58v-.43Z"/></symbol>
<symbol viewBox="0 0 16 16" fill="none" id="llm-2">
  <path d="M1 7.4873C1 6.9873 1.4 6.4873 2 6.4873H14C14.5 6.4873 15 6.8873 15 7.4873C15 7.9873 14.6 8.4873 14 8.4873H2C1.5 8.4873 1 8.0873 1 7.4873ZM2 1.4873C1.5 1.4873 1 1.8873 1 2.4873C1 2.9873 1.4 3.4873 2 3.4873H14C14.5 3.4873 15 3.0873 15 2.4873C15 1.9873 14.6 1.4873 14 1.4873H2ZM6.9 13.9873V13.4873H2C1.5 13.4873 1 13.0873 1 12.4873C1 11.9873 1.4 11.4873 2 11.4873H6.9V11.1873C6.9 10.7873 7.3 10.5873 7.7 10.7873L9.6 12.0873C10 12.3873 10 12.8873 9.6 13.1873L7.7 14.4873C7.3 14.5873 6.9 14.3873 6.9 13.9873Z" fill="currentColor"/>
</symbol>
<symbol fill="none" viewBox="116 116 430 267" id="mastra-logo">
  <path fill="currentColor" d="M174.36 266.33c32.23 0 58.36 25.9 58.36 57.83 0 31.94-26.13 57.83-58.36 57.83S116 356.1 116 324.16s26.13-57.83 58.36-57.83"/>
  <path fill="currentColor" d="M250.76 116c32.23 0 58.36 25.9 58.36 57.83q0 4.09-.56 8.01c-2.94 20.97-7.26 44.62 4.65 62.19l13.72 20.22 3.39 4.13c.62.75 1.8.71 2.36-.09l2.87-4.04 12.54-18.5c12.52-18.45 7.98-43.38 5.83-65.51a58 58 0 0 1-.27-5.6c0-31.94 26.13-57.83 58.36-57.83s58.36 25.89 58.36 57.83q0 4.66-.72 9.12c-3.18 19.84-7.73 41.77 2.4 59.16l5.8 9.28c5.48 8.79 15.3 13.57 25.26 16.46 24.22 7.04 41.9 29.22 41.91 55.5 0 31.94-26.13 57.83-58.36 57.83s-58.36-25.89-58.36-57.83q0-5.15.88-10.05c3.46-19.56 8.04-41.24-1.98-58.43l-12.72-21.84-.77-1.04a1.42 1.42 0 0 0-2.24-.06l-13.6 20.05c-12.2 17.98-7.6 42.26-4.75 63.73q.5 3.75.5 7.64c0 31.94-26.13 57.83-58.36 57.83s-58.36-25.89-58.36-57.83c0-22.69 3.54-48.01-9.23-66.85l-1-1.49c-10.27-15.12-28.48-22.63-44.5-31.57a57.7 57.7 0 0 1-29.77-50.42c0-31.94 26.13-57.83 58.36-57.83"/>
</symbol>
<symbol fill="none" viewBox="0 0 24 24" id="mcp"><path fill="currentColor" d="m7.77 10.27 4.55-4.55a.76.76 0 1 1 1.07 1.08l-4.54 4.55a2.08 2.08 0 0 0 2.94 2.94l4.55-4.55a.76.76 0 0 1 1.07 1.08l-4.54 4.55a3.6 3.6 0 0 1-5.1-5.1Z"/><path fill="currentColor" d="M9.76 12.34a.76.76 0 0 1 .14-.2l4.43-4.43a2.08 2.08 0 0 0-2.95-2.94l-6.57 6.58a.76.76 0 0 1-1.08-1.08l6.58-6.58a3.6 3.6 0 0 1 6.12 3 3.6 3.6 0 0 1 3 6.13l-1.3 1.3-3.56 3.57a1.68 1.68 0 0 0 0 2.37.76.76 0 0 1-1.07 1.08 3.2 3.2 0 0 1 0-4.52l3.56-3.57 1.3-1.31a2.08 2.08 0 0 0-2.94-2.94l-4.46 4.46a.76.76 0 0 1-1.2-.92Z"/></symbol>
<symbol fill="none" viewBox="0 0 51 51" id="memory"><path fill="currentColor" d="m10.56 28.85.87 5.22a3.43 3.43 0 0 0 3.7 2.85l.81-.08c3.08-.28 5.8 2 6.05 5.1l.26 3.18c.03.43.39.77.83.78l6.43.16a.86.86 0 0 0 .82-1.17l-3.97-9.83a4.3 4.3 0 0 0-1.44-1.85l-1.7-1.26a4.22 4.22 0 0 1-1.4-1.75 164.3 164.3 0 0 1-3.4-8.6c-.57-1.6-1.8-1.87-2.88-2.1-1.48-.34-2.68-.6-1.46-4.17 2.12-6.16 9.63-8.81 17.78-4.88 6.24 3 7.71 9.48 7.44 13.33a2.37 2.37 0 0 1-3.42 1.91l-5.14-2.57a.85.85 0 0 0-.92.1l-4.27 3.42c-.3.24-.4.64-.25 1l7.31 17.98c.13.32.44.53.78.54l2.86.07a.86.86 0 0 0 .8-1.21l-1.4-3.09a8.55 8.55 0 0 1 1.47-9.27l3.53-3.88a6.1 6.1 0 0 0 1.56-3.57l.05-.58A17.82 17.82 0 0 0 23.12 5.29a14.85 14.85 0 0 0-12.74 9.59l-.34.88c-.37 1-.23 2.13.38 3l.21.31a2.78 2.78 0 0 1-.2 3.43l-2.38 2.7a.86.86 0 0 0 .12 1.25l1.74 1.32c.35.27.58.65.65 1.08Z"/></symbol>
<symbol fill="none" viewBox="0 0 16 16" id="observability"><path fill="currentColor" d="M3.05 13.48c.53 0 .96.44.96.98v.56c0 .54-.43.98-.96.98a.97.97 0 0 1-.95-.98v-.56c0-.54.43-.98.95-.98Zm10.03 0c.53 0 .96.44.96.98v.56c0 .54-.43.98-.96.98a.97.97 0 0 1-.95-.98v-.56c0-.54.43-.98.95-.98ZM8.1 3.62c1.2 0 2.17 1 2.17 2.23 0 .63-.26 1.2-.66 1.6a3.03 3.03 0 0 0-.75 1.6v6.06c0 .4-.32.74-.72.74a.73.73 0 0 1-.72-.74v-6c-.2-.8-.77-1.55-1.03-1.83l.04-.01c-.31-.39-.5-.88-.5-1.42A2.2 2.2 0 0 1 8.1 3.62ZM2.92 0c.4 0 .72.33.72.74v5.98a4.84 4.84 0 0 0 1.01 1.81l.01.01c.3.38.47.86.47 1.39a2.2 2.2 0 0 1-2.16 2.23c-1.2 0-2.17-1-2.17-2.23 0-.68.3-1.28.76-1.7.52-.7.65-1.29.63-1.52V.74c0-.4.33-.74.73-.74Zm10.07 0c.4 0 .72.33.72.74v5.98a4.84 4.84 0 0 0 1.01 1.81l.01.01c.3.38.47.86.47 1.39a2.2 2.2 0 0 1-2.16 2.23c-1.2 0-2.17-1-2.17-2.23 0-.68.3-1.28.76-1.7.52-.7.64-1.29.63-1.52V.74c0-.4.33-.74.73-.74ZM8.18.09c.52 0 .95.44.95.98v.55c0 .55-.43.99-.95.99a.97.97 0 0 1-.96-.99v-.55c0-.54.43-.98.96-.98Z"/></symbol>
<symbol fill="none" viewBox="0 0 12 13" id="output"><path fill="currentColor" d="M6.34 12.06a.5.5 0 0 1-.88 0L2.58 6.85a.5.5 0 0 1 .54-.74l2.68.52a.5.5 0 0 0 .19 0l2.69-.52a.5.5 0 0 1 .53.74l-2.87 5.2Z"/><path fill="currentColor" fill-rule="evenodd" d="M7.9 5.28c.12-.02.2-.14.15-.25a2.26 2.26 0 0 0-4.17.03c-.04.11.03.23.15.25l1.79.33a.2.2 0 0 0 .07 0l2.01-.36Zm.25 1.24a.2.2 0 0 0-.22-.23l-2 .36a.5.5 0 0 1-.17 0l-1.73-.32c-.14-.02-.26.1-.22.23a2.26 2.26 0 0 0 4.34-.04Z" clip-rule="evenodd"/><path fill="currentColor" fill-rule="evenodd" d="M8.72 10.44c-.01.05 0 .1.02.14.04.07.14.1.22.05a5.62 5.62 0 1 0-5.85.08c.05.03.1 0 .13-.04a.1.1 0 0 0 0-.08l-.58-1.53c-.13-.33-.3-.63-.48-.92a4.42 4.42 0 1 1 7.47.19c-.2.29-.38.59-.5.92l-.43 1.2Z" clip-rule="evenodd"/></symbol>
<symbol fill="none" viewBox="0 0 19 20" id="person"><path fill="currentColor" fill-rule="evenodd" d="M9.3769 18.2045a8.2048 8.2048 0 1 0-.0003-16.4096 8.2048 8.2048 0 0 0 .0003 16.4096Zm-3.3745-4.8303L4.8186 14.558a6.4463 6.4463 0 0 1 .9767-9.9186 6.4466 6.4466 0 0 1 8.1399 9.9186l-1.1838-1.1838a3.5162 3.5162 0 0 0-2.4872-1.0303H8.4896a3.517 3.517 0 0 0-2.4872 1.0303Z" clip-rule="evenodd"/><path fill="currentColor" d="M9.3769 5.3113a2.3442 2.3442 0 0 0-2.3442 2.3442v.586a2.3442 2.3442 0 0 0 4.6884 0v-.586a2.3443 2.3443 0 0 0-2.3442-2.3442Z"/><defs><linearGradient id="a" x1="9.3769" x2="9.3769" y1="1.7949" y2="18.2045" gradientUnits="userSpaceOnUse"><stop stop-color="#9F9F9F"/><stop offset="1" stop-color="#666"/></linearGradient><linearGradient id="b" x1="9.3769" x2="9.3769" y1="1.7949" y2="18.2045" gradientUnits="userSpaceOnUse"><stop stop-color="#9F9F9F"/><stop offset="1" stop-color="#666"/></linearGradient></defs></symbol>
<symbol fill="none" viewBox="0 0 38 30" id="platform"><path fill="currentColor" d="M31.392 20.256a2 2 0 0 1 2 2v5.206a2 2 0 0 1-2 2H6.75a2 2 0 0 1-2-2v-5.206a2 2 0 0 1 2-2h24.642Zm-21.023 3.066a1.534 1.534 0 1 0 0 3.069 1.534 1.534 0 0 0 0-3.069Zm5.123 0a1.535 1.535 0 1 0 0 3.07 1.535 1.535 0 0 0 0-3.07Zm15.9-16.366a2 2 0 0 1 2 2v5.206a2 2 0 0 1-2 2H6.75a2 2 0 0 1-2-2V8.955a2 2 0 0 1 2-1.999h24.642Zm-21.023 3.07a1.535 1.535 0 1 0 .002 3.07 1.535 1.535 0 0 0-.002-3.07Zm5.123 0a1.535 1.535 0 1 0 0 3.068 1.535 1.535 0 0 0 0-3.068Z"/></symbol>
<symbol viewBox="0 0 8 8" fill="none" id="play">
<path d="M6.85198 3.66946C7.08704 3.80518 7.08704 4.14445 6.85198 4.28016L1.39094 7.4331C1.15588 7.56881 0.862057 7.39917 0.862057 7.12775L0.862057 3.97514L0.862057 0.82188C0.862057 0.550459 1.15588 0.38082 1.39094 0.516531L6.85198 3.66946Z" fill="currentColor"/>
</symbol>
<symbol fill="none" viewBox="0 0 48 48" id="product-gateway"><path fill="currentColor" d="M24.07 30.28a6.27 6.27 0 1 1 0 12.54 6.27 6.27 0 0 1 0-12.54"/><path fill="currentColor" fill-rule="evenodd" d="M36.56 17.63a6.8 6.8 0 1 1-4.75 11.66c-1.57-1.27-3.95-3.33-7.9-3.33-4.19 0-6.43 2.1-7.76 3.37l-.16.15-.01.01a6.8 6.8 0 1 1-.76-10.73v-.01c1.9 1.33 5.05 3.81 8.7 3.81s6.83-2.1 8.54-3.58V19a6.8 6.8 0 0 1 4.1-1.37M11.44 21.2a3.23 3.23 0 1 0 0 6.46 3.23 3.23 0 0 0 0-6.46m25.12 0a3.23 3.23 0 1 0 0 6.46 3.23 3.23 0 0 0 0-6.46" clip-rule="evenodd"/><path fill="currentColor" d="M24.07 5.18a6.27 6.27 0 1 1 0 12.55 6.27 6.27 0 0 1 0-12.55"/></symbol>
<symbol fill="none" viewBox="0 0 48 48" id="product-platform"><path fill="currentColor" d="M7.27 25.86a6.23 6.23 0 0 1 6.25 6.2c0 3.42-2.8 6.19-6.25 6.19a6.2 6.2 0 0 1-6.25-6.2c0-3.42 2.8-6.2 6.25-6.2M15.45 9.75a6.23 6.23 0 0 1 6.2 7.05c-.32 2.25-.78 4.79.5 6.67l1.47 2.16.5.6.42-.6 1.34-1.98c1.34-1.97.86-4.65.63-7.02a6.2 6.2 0 0 1 6.22-6.8 6.23 6.23 0 0 1 6.18 7.18c-.34 2.13-.83 4.48.26 6.34l.62 1c.58.94 1.64 1.45 2.7 1.76a6.2 6.2 0 0 1 4.5 5.94c0 3.43-2.8 6.2-6.26 6.2a6.22 6.22 0 0 1-6.16-7.27c.37-2.1.86-4.42-.2-6.26L33 22.38l-.2-.28-.13.16-1.45 2.15c-1.3 1.92-.82 4.52-.51 6.83a6.2 6.2 0 0 1-6.2 7.01 6.2 6.2 0 0 1-6.25-6.2c0-2.43.38-5.14-1-7.16l-.1-.16c-1.1-1.62-3.05-2.42-4.77-3.38a6.18 6.18 0 0 1 3.06-11.6"/></symbol>
<symbol fill="none" viewBox="0 0 48 48" id="product-server"><path fill="currentColor" d="M24.1 42.99a19 19 0 0 1-14.9-7.23 2 2 0 0 1 3.12-2.48 15 15 0 1 0 0-18.57 2 2 0 0 1-3.13-2.47A18.99 18.99 0 1 1 24.1 42.98"/><path fill="currentColor" d="M23.97 33.41a9.4 9.4 0 0 1-8.76-5.96c-.33-.83-1.08-1.45-1.96-1.45h-7.3a2 2 0 0 1 0-4h7.3c.88 0 1.63-.62 1.96-1.45a9.42 9.42 0 1 1 8.76 12.86"/></symbol>
<symbol fill="none" viewBox="0 0 48 48" id="product-support"><path fill="currentColor" d="M34.1 32.2a3.36 3.36 0 0 1 2.08-6.38 5.15 5.15 0 1 0-2.57-7.93 11.9 11.9 0 0 1-19.2 0 5.16 5.16 0 1 0-2.58 7.92 3.36 3.36 0 1 1 2.06 6.4 5.15 5.15 0 1 0 6.75 4.9 3.35 3.35 0 1 1 6.7 0 5.16 5.16 0 1 0 6.75-4.9z"/><path fill="currentColor" d="M24 16.04a5.16 5.16 0 1 0 0-10.31 5.16 5.16 0 0 0 0 10.31"/></symbol>
<symbol viewBox="0 0 54 54" fill="none" id="projects">
<circle cx="26.9964" cy="27.0003" r="8.00961" stroke="currentColor" stroke-width="3.29582"/>
<circle cx="26.9984" cy="9.15664" r="2.6" fill="currentColor"/>
<circle cx="26.9984" cy="44.8432" r="2.6" fill="currentColor"/>
<circle cx="18.0756" cy="11.5493" r="2.6" transform="rotate(-30 18.0756 11.5493)" fill="currentColor"/>
<circle cx="35.9189" cy="42.4546" r="2.6" transform="rotate(-30 35.9189 42.4546)" fill="currentColor"/>
<circle cx="11.5453" cy="18.0786" r="2.6" transform="rotate(-60 11.5453 18.0786)" fill="currentColor"/>
<circle cx="42.4506" cy="35.9219" r="2.6" transform="rotate(-60 42.4506 35.9219)" fill="currentColor"/>
<circle cx="9.15664" cy="27.0016" r="2.6" transform="rotate(-90 9.15664 27.0016)" fill="currentColor"/>
<circle cx="44.8432" cy="27.0016" r="2.6" transform="rotate(-90 44.8432 27.0016)" fill="currentColor"/>
<circle cx="11.5425" cy="35.922" r="2.6" transform="rotate(-120 11.5425 35.922)" fill="currentColor"/>
<circle cx="42.4478" cy="18.0787" r="2.6" transform="rotate(-120 42.4478 18.0787)" fill="currentColor"/>
<circle cx="18.0767" cy="42.4522" r="2.6" transform="rotate(-150 18.0767 42.4522)" fill="currentColor"/>
<circle cx="35.9199" cy="11.547" r="2.6" transform="rotate(-150 35.9199 11.547)" fill="currentColor"/>
</symbol>
<symbol viewBox="0 0 32 33" fill="none" id="prompt">
  <path d="M9 21.4888L8.00391 21.4849C6.33903 21.4778 5 20.1315 5 18.4897V8.47998C5 6.83227 6.34981 5.48511 8.0166 5.48486H23.9834C25.6542 5.48511 27 6.83407 27 8.47998V18.4897C27 20.1375 25.6502 21.4846 23.9834 21.4849H16.3555L16.0986 21.6626L9.08691 26.5161C9.05736 26.5366 9.02907 26.553 9.00391 26.5679C9.00166 26.5377 9 26.5039 9 26.4663V21.4888Z" stroke="currentColor" stroke-width="2"/>
</symbol>
<symbol fill="none" viewBox="0 0 40 41" id="rag"><path fill="currentColor" fill-rule="evenodd" d="M37.34 26.33c.49.48.49 1.27 0 1.75-.48.5-1.27.5-1.76 0l-2.12-2.12c-.06-.06-.1-.14-.14-.21a4.97 4.97 0 1 1 2.41-4.24c0 .94-.27 1.8-.73 2.55.08.05.16.08.22.15l2.12 2.12Zm-6.57-2.34a2.49 2.49 0 1 0 0-4.97 2.49 2.49 0 0 0 0 4.97Z" clip-rule="evenodd"/><circle cx="19.64" cy="20.66" r="4.1" fill="currentColor"/><circle cx="19.64" cy="30.91" r="4.1" fill="currentColor"/><circle cx="9.32" cy="20.66" r="4.1" fill="currentColor"/><circle cx="9.32" cy="30.91" r="4.1" fill="currentColor"/><circle cx="19.64" cy="10.41" r="4.1" fill="currentColor"/><circle cx="9.45" cy="10.41" r="4.1" fill="currentColor"/><circle cx="29.83" cy="10.41" r="4.1" fill="currentColor"/></symbol>
<symbol fill="none" viewBox="0 0 16 16" id="resources-new"><path fill="currentColor" d="M16.31 5.25 8.29 9.01 8 9.14l-.29-.13L-.3 5.25 8 1.36l8.31 3.9Zm-13.4 0L8 7.64l5.08-2.39L8 2.87 2.9 5.25Z"/><path fill="currentColor" d="m16.31 8.53-8.02 3.75-.29.14-.29-.14L-.3 8.53l4.67-2.19.58 1.24-2.03.95L8 10.9l5.08-2.38-2.03-.95.58-1.24 4.67 2.19Z"/><path fill="currentColor" d="m16.31 11.8-8.02 3.76-.29.13-.29-.13L-.3 11.8l4.67-2.18.58 1.23-2.03.95L8 14.2l5.08-2.39-2.03-.95.58-1.23 4.67 2.18Z"/></symbol>
<symbol viewBox="0 0 17 17" fill="none" id="retreive">
<path fill-rule="evenodd" clip-rule="evenodd" d="M8.6084 3.25C5.7089 3.25 3.3584 5.60051 3.3584 8.5C3.3584 11.3995 5.7089 13.75 8.6084 13.75C11.5079 13.75 13.8584 11.3995 13.8584 8.5C13.8584 5.60051 11.5079 3.25 8.6084 3.25ZM1.8584 8.5C1.8584 4.77208 4.88048 1.75 8.6084 1.75C12.3363 1.75 15.3584 4.77208 15.3584 8.5C15.3584 12.2279 12.3363 15.25 8.6084 15.25C4.88048 15.25 1.8584 12.2279 1.8584 8.5Z" fill="currentColor"/>
<circle cx="8.6084" cy="8.5" r="2" fill="currentColor"/>
</symbol>
<symbol fill="none" viewBox="0 0 17 16" id="retrieval"><path fill="currentColor" fill-rule="evenodd" d="M.91 2.15C.91 1.5 1.42 1 2.06 1h1.7c.64 0 1.15.5 1.15 1.15v1.7C4.91 4.5 4.41 5 3.77 5H2.06C1.43 5 .91 4.5.91 3.85v-1.7Zm5 0C5.91 1.5 6.42 1 7.06 1h1.7c.64 0 1.15.5 1.15 1.15v1.7C9.91 4.5 9.41 5 8.77 5H7.06c-.63 0-1.15-.5-1.15-1.15v-1.7Zm-5 5C.91 6.5 1.42 6 2.06 6h1.7c.64 0 1.15.5 1.15 1.15v1.7c0 .64-.5 1.15-1.14 1.15H2.06C1.43 10 .91 9.5.91 8.85v-1.7Zm0 5c0-.64.51-1.15 1.15-1.15h1.7c.64 0 1.15.5 1.15 1.15v1.7c0 .64-.5 1.15-1.14 1.15H2.06c-.63 0-1.15-.5-1.15-1.15v-1.7Zm5 0c0-.64.51-1.15 1.15-1.15h1.7c.64 0 1.15.5 1.15 1.15v1.7c0 .64-.5 1.15-1.14 1.15H7.06c-.63 0-1.15-.5-1.15-1.15v-1.7Zm0-5C5.91 6.5 6.42 6 7.06 6h1.7c.64 0 1.15.5 1.15 1.15v1.7c0 .64-.5 1.15-1.14 1.15H7.06c-.63 0-1.15-.5-1.15-1.15v-1.7Zm5-5c0-.64.51-1.15 1.15-1.15h1.7c.64 0 1.15.5 1.15 1.15v1.7c0 .64-.5 1.15-1.14 1.15h-1.71c-.63 0-1.15-.5-1.15-1.15v-1.7Zm5.62 8.61a.6.6 0 0 1 0 .86.6.6 0 0 1-.86 0l-1.03-1.04-.07-.1a2.42 2.42 0 1 1 1.17-2.06c0 .45-.13.88-.35 1.24.04.02.08.04.1.07l1.04 1.03Zm-3.2-1.13a1.2 1.2 0 1 0 0-2.42 1.2 1.2 0 0 0 0 2.42Z" clip-rule="evenodd"/></symbol>
<symbol fill="none" viewBox="-4 -5 48 48" id="server"><path fill="currentColor" d="M20.15 37.9763C14.1008 37.9763 8.71141 35.1454 5.23748 30.7439C4.55476 29.8789 4.70263 28.624 5.5675 27.9412C6.43257 27.2584 7.68749 27.4061 8.37027 28.2712C11.12 31.7551 15.374 33.9853 20.15 33.9853C28.4326 33.9853 35.1472 27.2708 35.1472 18.9881C35.1471 10.7055 28.4326 3.99098 20.15 3.99098C15.374 3.99102 11.12 6.22185 8.37027 9.70571C7.68745 10.5706 6.43249 10.7184 5.5675 10.0357C4.70252 9.353 4.55486 8.09802 5.23747 7.23297C8.7114 2.83148 14.1008 3.97781e-05 20.15 0C30.6367 -9.16777e-07 39.1381 8.50143 39.1381 18.9881C39.1381 29.4749 30.6368 37.9763 20.15 37.9763Z"/><path fill="currentColor" d="M20.0138 28.4013C16.0333 28.4012 12.6302 25.9302 11.254 22.4386C10.9285 21.6129 10.18 20.9843 9.29255 20.9843H1.99549C0.893588 20.9842 0.000136063 20.0907 0 18.9888C-9.63405e-08 17.8868 0.893504 16.9934 1.99549 16.9933H9.29247C10.18 16.9933 10.9285 16.3645 11.2539 15.5388C12.63 12.047 16.0332 9.57572 20.0138 9.57566C25.2122 9.5758 29.4263 13.7904 29.4263 18.9888C29.4262 24.1871 25.2121 28.4011 20.0138 28.4013Z"/></symbol>
<symbol fill="none" viewBox="0 0 38 38" id="settings"><path fill="currentColor" d="m29.274 9.318-2.132 3.697a1.284 1.284 0 0 0 1.112 1.926h4.27v8.114h-4.27a1.285 1.285 0 0 0-1.112 1.927l2.136 3.7-7.026 4.058-2.136-3.699a1.285 1.285 0 0 0-2.225 0l-2.135 3.7-7.027-4.058 2.134-3.696a1.285 1.285 0 0 0-1.113-1.926H5.48v-8.115h4.27c.99 0 1.607-1.07 1.112-1.926L8.726 9.318l7.026-4.056 2.135 3.698a1.285 1.285 0 0 0 2.225 0l2.136-3.698 7.026 4.056ZM19 12.805a6.197 6.197 0 1 0 0 12.394 6.197 6.197 0 0 0 0-12.394Z"/></symbol>
<symbol fill="none" viewBox="0 0 20 16" id="studio"><path fill="currentColor" fill-rule="evenodd" d="M18.182 0C19.186 0 20 .796 20 1.778v9.725c0 .982-.814 1.778-1.818 1.778h-4.546V16H6.364v-2.719H1.818C.814 13.281 0 12.485 0 11.503V1.778C0 .796.814 0 1.818 0h16.364ZM1.818 11.503h16.364V1.778H1.818v9.725Z" clip-rule="evenodd"/></symbol>
<symbol fill="none" viewBox="0 0 14 15" id="token-in"><path fill="currentColor" fill-rule="evenodd" d="M.89 7.73c0 .24.2.43.44.43h6.5c.16 0 .24.2.12.3L6.78 9.64a.56.56 0 1 0 .79.78l2.5-2.5a.44.44 0 0 0 0-.62l-2.5-2.5a.56.56 0 0 0-.8.78l1.18 1.18c.12.1.04.3-.12.3h-6.5a.43.43 0 0 0-.44.43v.24Z" clip-rule="evenodd"/><path fill="currentColor" d="M2.08 5.96c.2 0 .36-.13.43-.32.48-1.42 1.46-2.42 2.56-2.72a6.35 6.35 0 0 0-1.44 2.5c-.08.28.13.54.41.54h.47c.2 0 .36-.13.43-.32.58-1.72 1.9-2.82 3.27-2.82 1.85 0 3.6 1.99 3.6 4.8 0 2.83-1.75 4.82-3.6 4.82-1.37 0-2.69-1.1-3.27-2.83a.46.46 0 0 0-.44-.32h-.46a.41.41 0 0 0-.4.53c.3.98.79 1.85 1.43 2.52-1.1-.3-2.08-1.3-2.56-2.73a.46.46 0 0 0-.44-.32h-.46a.41.41 0 0 0-.4.53c.68 2.24 2.4 3.93 4.57 3.93h2.43c2.86 0 4.91-2.9 4.91-6.12S11.07 1.5 8.22 1.5H5.77C3.61 1.5 1.9 3.2 1.2 5.43c-.08.27.13.53.41.53h.47Z"/></symbol>
<symbol fill="none" viewBox="0 0 14 15" id="token.out"><path fill="currentColor" fill-rule="evenodd" d="M13.14 7.49c0-.24-.2-.44-.44-.44H8.5a.18.18 0 0 1-.13-.3l1.17-1.17a.56.56 0 0 0-.78-.79l-2.5 2.5a.44.44 0 0 0 0 .63l2.5 2.5a.56.56 0 0 0 .79-.78L8.36 8.46a.18.18 0 0 1 .13-.3h4.21c.24 0 .44-.2.44-.44V7.5Z" clip-rule="evenodd"/><path fill="currentColor" fill-rule="evenodd" d="M4.62 7.63c0-2.82 1.75-4.81 3.6-4.81 1.36 0 2.68 1.1 3.27 2.82.07.19.24.32.43.32h.47c.28 0 .49-.26.4-.53-.68-2.23-2.4-3.93-4.58-3.93H5.78C2.93 1.5.88 4.4.88 7.63c0 3.22 2.05 6.12 4.9 6.12h2.43c2.18 0 3.9-1.7 4.59-3.93a.41.41 0 0 0-.41-.53h-.47c-.2 0-.36.14-.43.32-.58 1.73-1.9 2.83-3.28 2.83-1.84 0-3.6-2-3.6-4.81Zm-2.43 0c0-2.45 1.32-4.28 2.88-4.71a6.89 6.89 0 0 0-1.76 4.7c0 1.84.66 3.57 1.76 4.72-1.56-.44-2.88-2.26-2.88-4.71Z" clip-rule="evenodd"/></symbol>
<symbol viewBox="0 0 16 17" fill="none" id="tool">
  <path fill-rule="evenodd" clip-rule="evenodd" d="M7.0605 1.67827C7.5791 1.15966 8.42215 1.16092 8.9395 1.67827L10.1922 2.93093C10.7108 3.44953 10.7095 4.29258 10.1922 4.80993L8.9395 6.06259C8.4209 6.5812 7.57785 6.57994 7.0605 6.06259L5.80784 4.80993C5.28923 4.29133 5.29049 3.44828 5.80784 2.93093L7.0605 1.67827ZM2.67618 6.06259C3.19478 5.54399 4.03782 5.54524 4.55517 6.06259L5.80784 7.31526C6.32644 7.83386 6.32519 8.6769 5.80784 9.19425L4.55517 10.4469C4.03657 10.9655 3.19353 10.9643 2.67618 10.4469L1.42351 9.19425C0.90491 8.67565 0.906162 7.83261 1.42351 7.31526L2.67618 6.06259ZM11.4448 6.06259C11.9634 5.54399 12.8065 5.54524 13.3238 6.06259L14.5765 7.31526C15.0951 7.83386 15.0938 8.6769 14.5765 9.19425L13.3238 10.4469C12.8052 10.9655 11.9622 10.9643 11.4448 10.4469L10.1922 9.19425C9.67356 8.67565 9.67481 7.83261 10.1922 7.31526L11.4448 6.06259ZM7.0605 10.4469C7.5791 9.92831 8.42215 9.92957 8.9395 10.4469L10.1922 11.6996C10.7108 12.2182 10.7095 13.0612 10.1922 13.5786L8.9395 14.8312C8.4209 15.3498 7.57785 15.3486 7.0605 14.8312L5.80784 13.5786C5.28923 13.06 5.29049 12.2169 5.80784 11.6996L7.0605 10.4469Z" fill="currentColor"/>
</symbol>
<symbol fill="none" viewBox="0 0 54 54" id="tools-sharp"><path fill="currentColor" fill-rule="evenodd" d="M38.85 9.77A3.3 3.3 0 0 0 36 8.13H18a3.3 3.3 0 0 0-2.84 1.64l-9 15.59a3.3 3.3 0 0 0 0 3.29l9 15.58A3.3 3.3 0 0 0 18 45.87h18a3.3 3.3 0 0 0 2.85-1.64l9-15.58a3.3 3.3 0 0 0 0-3.3l-9-15.58Zm-17.36 26.8a11.04 11.04 0 1 0 11.04-19.13 11.04 11.04 0 0 0-11.04 19.12Z" clip-rule="evenodd"/></symbol>
<symbol viewBox="0 0 54 54" fill="none" id="trace-curved">
<path d="M39.8262 37.3545C41.4155 37.3545 42.704 38.5621 42.7041 40.0518C42.7041 41.5415 41.4156 42.749 39.8262 42.749H29.7129C28.1236 42.7489 26.835 41.5414 26.835 40.0518C26.835 38.5621 28.1236 37.3546 29.7129 37.3545H39.8262ZM39.8262 24.2695C41.4154 24.2695 42.7039 25.4772 42.7041 26.9668C42.7041 28.4565 41.4156 29.6641 39.8262 29.6641H29.7129C28.1236 29.664 26.835 28.4565 26.835 26.9668C26.8352 25.4773 28.1237 24.2696 29.7129 24.2695H39.8262ZM40.3018 11.2549C41.8428 11.2549 43.0928 12.4634 43.0928 13.9531C43.0926 15.4427 41.8427 16.6504 40.3018 16.6504H19.7822C18.2413 16.6504 16.9914 15.4427 16.9912 13.9531C16.9912 12.4634 18.2412 11.2549 19.7822 11.2549H40.3018Z" fill="currentColor"/>
<path d="M10.9121 13.9492V26.8141M22.6098 40.0296H20.4989C15.2303 40.0296 10.9527 35.7713 10.9288 30.5028L10.9121 26.8141M10.9121 26.8141H21.9957" stroke="currentColor" stroke-width="2.68562"/>
</symbol>
<symbol fill="none" viewBox="0 0 32 33" id="trace"><path fill="currentColor" d="M26.61 23.67a2 2 0 0 1 0 4H19.6a2 2 0 0 1 0-4h7.02ZM5.1 5.41a1 1 0 0 1 1 1v8.56h6.62a1 1 0 0 1 0 2H6.1v6.84a1 1 0 0 0 1 1h5.73a1 1 0 0 1 0 2H7.1a3 3 0 0 1-3-3V6.41a1 1 0 0 1 1-1Zm21.51 8.56a2 2 0 0 1 0 4H19.6a2 2 0 0 1 0-4h7.02Zm.3-9.65a2 2 0 0 1 0 4H12.18a2 2 0 1 1 0-4H26.9Z"/></symbol>
<symbol fill="currentColor" class="bi bi-typescript" viewBox="0 0 16 16" id="typescript"><path fill-rule="evenodd" d="M14 0a2 2 0 0 1 2 2v12a2 2 0 0 1-2 2H2a2 2 0 0 1-2-2V2a2 2 0 0 1 2-2zm-1.14 7.49q-.58 0-1 .24a1.67 1.67 0 0 0-.64.68 2.1 2.1 0 0 0-.22 1q0 .75.29 1.17.3.42.97.74l.47.21q.43.19.62.43.18.24.18.64 0 .47-.16.7-.16.22-.53.22-.36 0-.54-.24-.2-.24-.21-.75h-1.16q.02 1 .5 1.52.48.53 1.38.53.91 0 1.42-.52.5-.52.5-1.48 0-.81-.33-1.3t-1.04-.78l-.45-.2q-.39-.17-.56-.38-.16-.21-.16-.58 0-.4.16-.6.18-.19.51-.19.36 0 .5.24.16.23.18.7h1.13q-.03-.98-.5-1.48-.47-.52-1.3-.52M7 7.59v1.12h1.3v5.79h1.22V8.7h1.29V7.6z"/></symbol>
<symbol fill="none" viewBox="0 0 26 26" id="union"><path fill="currentColor" d="M3.5 7.33c.28 0 .55.04.8.1 2.3.54 3.93 2.94 6.16 3.67l.49.16c1.39.45 2.89.45 4.27 0l.32-.1c2.1-.69 3.65-2.84 5.79-3.39a3.5 3.5 0 1 1 .04 6.8 3.48 3.48 0 0 0-1.88-.07l-.24.08a2.07 2.07 0 0 0-1.03 3.18l.6.84.05.02a3.5 3.5 0 1 1-3.5 3.5c0-.44-.08-.9-.34-1.25l-.42-.58a2.14 2.14 0 0 0-3.47 0l-.08.11c-.32.44-.4 1-.4 1.55a3.5 3.5 0 1 1-4.61-3.31 3 3 0 0 0 1.57-1c.82-1.13.3-2.73-1.03-3.17L6 14.3a4.08 4.08 0 0 0-1.93 0A3.5 3.5 0 0 1 0 10.82a3.5 3.5 0 0 1 3.5-3.5ZM13 .96a3.5 3.5 0 1 1 0 7 3.5 3.5 0 0 1 0-7Z"/></symbol>
<symbol fill="none" viewBox="0 0 18 15" id="vector-store"><path fill="currentColor" fill-rule="evenodd" d="M3.36 14.68c-.63 0-1.14-.5-1.14-1.14v-1.7c0-.64.5-1.16 1.14-1.16h1.71c.64 0 1.15.51 1.15 1.15v1.7c0 .64-.5 1.15-1.15 1.15h-1.7Zm5 0c-.63 0-1.14-.5-1.14-1.14v-1.7c0-.64.5-1.16 1.14-1.16h1.71c.64 0 1.15.51 1.15 1.15v1.7c0 .64-.5 1.15-1.15 1.15h-1.7Zm5 0c-.63 0-1.14-.5-1.14-1.14v-1.7c0-.64.5-1.16 1.14-1.16h1.71c.64 0 1.15.51 1.15 1.15v1.7c0 .64-.5 1.15-1.15 1.15h-1.7Zm.71-9.87V8.4a1.2 1.2 0 1 1-2.39 0V4.81h-1.2c-.64 0-.86-.43-.47-.95L12.16.99c.4-.53 1.04-.53 1.44 0l2.15 2.87c.4.53.18.95-.47.95h-1.2Zm-7.53 0V8.4c0 .66-.53 1.2-1.2 1.2a1.2 1.2 0 0 1-1.2-1.2V4.81h-1.2c-.64 0-.86-.43-.47-.95L4.62.99c.4-.53 1.04-.53 1.44 0L8.2 3.86c.4.53.18.95-.47.95h-1.2Z" clip-rule="evenodd"/></symbol>
<symbol fill="none" viewBox="0 0 12 12" id="vscode"><mask id="a" width="12" height="12" x="0" y="0" maskUnits="userSpaceOnUse" style="mask-type:alpha"><path fill="#fff" fill-rule="evenodd" d="m8.5 12 .6-.1 2.5-1.2c.2-.1.4-.4.4-.7V2c0-.3-.2-.6-.4-.7L9 0a.7.7 0 0 0-.8.1L3.5 4.6 1.5 3a.5.5 0 0 0-.7 0l-.6.6c-.3.2-.3.6 0 .8L1.9 6 .2 7.6c-.3.2-.3.6 0 .8l.6.6h.7l2-1.6 4.8 4.3.2.2ZM9 3.2 5.4 6 9 8.7V3.3Z" clip-rule="evenodd"/></mask><g mask="url(#a)"><path fill="#AAA" d="M11.6 1.3 9 .1a.7.7 0 0 0-.9.1l-8 7.4c-.3.2-.3.6 0 .8l.6.6h.7l9.7-7.4c.3-.2.8 0 .8.4 0-.3-.2-.6-.4-.7Z"/><g filter="url(#b)"><path fill="#DFDFDF" d="M11.6 10.7 9 11.9c-.3.1-.6 0-.9-.2l-8-7.3a.5.5 0 0 1 0-.8L.8 3h.7l9.7 7.4c.3.2.8 0 .8-.4 0 .3-.2.6-.4.7Z"/></g><g filter="url(#c)"><path fill="#fff" d="M9.1 11.9c-.3.1-.6 0-.8-.2.2.3.7.1.7-.3V.6c0-.4-.5-.6-.8-.4.3-.2.6-.2.9-.1l2.5 1.2c.2.1.4.4.4.7v8c0 .3-.2.6-.4.7L9 12Z"/></g><path fill="url(#d)" fill-rule="evenodd" d="m8.5 12 .6-.1 2.5-1.2c.2-.1.4-.4.4-.7V2c0-.3-.2-.6-.4-.7L9 0a.7.7 0 0 0-.9.1L3.5 4.6 1.5 3a.5.5 0 0 0-.7 0l-.6.6c-.3.2-.3.6 0 .8L1.9 6 .2 7.6c-.3.2-.3.6 0 .8l.6.6h.7l2-1.6 4.7 4.3.3.2ZM9 3.2 5.4 6 9 8.7V3.3Z" clip-rule="evenodd" opacity=".3" style="mix-blend-mode:overlay"/></g><defs><filter id="b" width="14" height="11.1" x="-1" y="1.9" color-interpolation-filters="sRGB" filterUnits="userSpaceOnUse"><feFlood flood-opacity="0" result="BackgroundImageFix"/><feColorMatrix in="SourceAlpha" result="hardAlpha" values="0 0 0 0 0 0 0 0 0 0 0 0 0 0 0 0 0 0 127 0"/><feOffset/><feGaussianBlur stdDeviation=".5"/><feColorMatrix values="0 0 0 0 0 0 0 0 0 0 0 0 0 0 0 0 0 0 0.25 0"/><feBlend in2="BackgroundImageFix" mode="overlay" result="effect1_dropShadow_2951_2376"/><feBlend in="SourceGraphic" in2="effect1_dropShadow_2951_2376" result="shape"/></filter><filter id="c" width="5.8" height="13.9" x="7.3" y="-1" color-interpolation-filters="sRGB" filterUnits="userSpaceOnUse"><feFlood flood-opacity="0" result="BackgroundImageFix"/><feColorMatrix in="SourceAlpha" result="hardAlpha" values="0 0 0 0 0 0 0 0 0 0 0 0 0 0 0 0 0 0 127 0"/><feOffset/><feGaussianBlur stdDeviation=".5"/><feColorMatrix values="0 0 0 0 0 0 0 0 0 0 0 0 0 0 0 0 0 0 0.25 0"/><feBlend in2="BackgroundImageFix" mode="overlay" result="effect1_dropShadow_2951_2376"/><feBlend in="SourceGraphic" in2="effect1_dropShadow_2951_2376" result="shape"/></filter><linearGradient id="d" x1="6" x2="6" y1="0" y2="12" gradientUnits="userSpaceOnUse"><stop stop-color="#fff"/><stop offset="1" stop-color="#fff" stop-opacity="0"/></linearGradient></defs></symbol>
<symbol fill="none" viewBox="0 0 16 16" id="windsurf"><path fill="currentColor" d="M5.6 8.2 5 6c-.2-.3.1-.7.5-.7 4.3.2 6.4 1.7 6.2 6.2-.7-3.1-4.3-3.3-6-3.3Z"/><path fill="currentColor" d="m4.5 4.3-.8-2c-.2-.5.1-.9.5-.9 4.4.1 7.4.4 7.4 6.1-.7-3-5.4-3.2-7.1-3.2Zm2.3 7.9L6 9.9c-.1-.4.1-.7.5-.7 3.5.2 5.2 1.7 5 6-.7-3-3-3-4.7-3Z"/></symbol>
<symbol fill="none" viewBox="0 0 16 16" id="workflow-new"><path fill="currentColor" fill-rule="evenodd" d="M5.74 2.4c0-.36.3-.65.66-.65h3.2c.36 0 .66.29.66.65v2.18c0 .36-.3.65-.66.65h-.78v2.12l.68 1.88-.3-.08-.07-.02c-.33-.07-.7-.16-1.01-.29A2.72 2.72 0 0 1 8 8.8l-.12.05c-.3.13-.69.22-1 .3l-.07.01-.31.08.68-1.88V5.23H6.4a.66.66 0 0 1-.66-.65V2.4Zm.76 6.83-.57 1.54h.39c.36 0 .65.3.65.65v2.18c0 .36-.29.65-.65.65h-3.2a.66.66 0 0 1-.66-.65v-2.18c0-.36.3-.65.66-.65h.65c.02-.3.06-.62.1-.92.07-.36.16-.77.32-1.09.25-.5.76-.74 1.09-.87.37-.15.8-.25 1.14-.33.33-.08.58-.14.76-.2L6.5 9.22Zm-.57 1.54.57-1.54a5.33 5.33 0 0 0-.86.3 9.57 9.57 0 0 0-.23 1.24h.52ZM9.5 9.23l-.68-1.88c.18.07.43.13.76.2.34.09.77.2 1.14.34.33.13.84.37 1.09.87.16.32.25.73.31 1.1.05.29.09.6.11.9h.65c.36 0 .66.3.66.66v2.18c0 .36-.3.65-.66.65h-3.2a.66.66 0 0 1-.66-.65v-2.18c0-.36.3-.65.66-.65h.39L9.5 9.23Zm0 0 .57 1.54h.52a9.47 9.47 0 0 0-.09-.65c-.04-.29-.1-.48-.14-.59a5.33 5.33 0 0 0-.86-.3Z" clip-rule="evenodd"/></symbol>
<symbol fill="none" viewBox="0 0 24 24" id="workflows"><path fill="currentColor" d="M3.58 14.47a3.65 3.65 0 0 1 4.12-.73l-.92.7a2.66 2.66 0 1 0 2 2.64l.96-.73a3.64 3.64 0 1 1-6.16-1.88Zm13.35-.61a3.43 3.43 0 1 1-2.07 2.59l.71.6v.02a2.67 2.67 0 1 0 5.34 0l-.01-.27a2.67 2.67 0 0 0-3.25-2.33l-.72-.61Z"/><path fill="currentColor" d="M10.18 3.96a3.29 3.29 0 1 1 3.3 5.45.6.6 0 0 0-.42.56v1.71c0 .16.06.3.18.4l3.92 3.32c.17.14.4.16.62.1a1.65 1.65 0 0 1 2.1 1.57 1.65 1.65 0 1 1-3.28-.1.65.65 0 0 0-.2-.56l-3.68-3.1a.53.53 0 0 0-.66-.02L8 16.4c-.17.13-.23.35-.22.56v.07a1.65 1.65 0 1 1-1.15-1.56c.2.06.43.05.6-.08l4.36-3.33c.13-.1.2-.25.2-.42V9.92a.6.6 0 0 0-.4-.55 3.28 3.28 0 0 1-1.2-5.41Z"/></symbol>
<symbol viewBox="0 0 40 39" fill="none" id="workshop">
  <path d="M23.0788 8.72119H5.98535V29.2946H23.0788V22.6331L33.7236 29.2946V8.72119L23.0788 15.2807V8.72119Z" stroke="currentColor" stroke-width="3.75498" stroke-linejoin="bevel"/>
</symbol>
<symbol stroke-linejoin="round" style="color:currentColor" viewBox="0 0 16 16" id="x"><path fill-rule="evenodd" clip-rule="evenodd" d="M1.60022 2H5.80022L8.78759 6.16842L12.4002 2H14.0002L9.5118 7.17895L14.4002 14H10.2002L7.21285 9.83158L3.60022 14H2.00022L6.48864 8.82105L1.60022 2ZM10.8166 12.8L3.93657 3.2H5.18387L12.0639 12.8H10.8166Z" fill="currentColor"/></symbol>
  </defs>
  <g class="icon-cell">
    <rect x="28" y="76" width="96" height="112" rx="8" fill="#ffffff" stroke="#e0e0e0"/>
    <use href="#agent-hour" x="52" y="84" width="48" height="48"/>
    <text x="76" y="152" text-anchor="middle" class="icon-label">agent-hour</text>
  </g>
  <g class="icon-cell">
    <rect x="132" y="76" width="96" height="112" rx="8" fill="#ffffff" stroke="#e0e0e0"/>
    <use href="#agent-new" x="156" y="84" width="48" height="48"/>
    <text x="180" y="152" text-anchor="middle" class="icon-label">agent-new</text>
  </g>
  <g class="icon-cell">
    <rect x="236" y="76" width="96" height="112" rx="8" fill="#ffffff" stroke="#e0e0e0"/>
    <use href="#agent" x="260" y="84" width="48" height="48"/>
    <text x="284" y="152" text-anchor="middle" class="icon-label">agent</text>
  </g>
  <g class="icon-cell">
    <rect x="340" y="76" width="96" height="112" rx="8" fill="#ffffff" stroke="#e0e0e0"/>
    <use href="#agentic-rag" x="364" y="84" width="48" height="48"/>
    <text x="388" y="152" text-anchor="middle" class="icon-label">agentic-rag</text>
  </g>
  <g class="icon-cell">
    <rect x="444" y="76" width="96" height="112" rx="8" fill="#ffffff" stroke="#e0e0e0"/>
    <use href="#apache" x="468" y="84" width="48" height="48"/>
    <text x="492" y="152" text-anchor="middle" class="icon-label">apache</text>
  </g>
  <g class="icon-cell">
    <rect x="548" y="76" width="96" height="112" rx="8" fill="#ffffff" stroke="#e0e0e0"/>
    <use href="#arrow" x="572" y="84" width="48" height="48"/>
    <text x="596" y="152" text-anchor="middle" class="icon-label">arrow</text>
  </g>
  <g class="icon-cell">
    <rect x="652" y="76" width="96" height="112" rx="8" fill="#ffffff" stroke="#e0e0e0"/>
    <use href="#attachment" x="676" y="84" width="48" height="48"/>
    <text x="700" y="152" text-anchor="middle" class="icon-label">attachment</text>
  </g>
  <g class="icon-cell">
    <rect x="756" y="76" width="96" height="112" rx="8" fill="#ffffff" stroke="#e0e0e0"/>
    <use href="#auth" x="780" y="84" width="48" height="48"/>
    <text x="804" y="152" text-anchor="middle" class="icon-label">auth</text>
  </g>
  <g class="icon-cell">
    <rect x="28" y="196" width="96" height="112" rx="8" fill="#ffffff" stroke="#e0e0e0"/>
    <use href="#book" x="52" y="204" width="48" height="48"/>
    <text x="76" y="272" text-anchor="middle" class="icon-label">book</text>
  </g>
  <g class="icon-cell">
    <rect x="132" y="196" width="96" height="112" rx="8" fill="#ffffff" stroke="#e0e0e0"/>
    <use href="#branch" x="156" y="204" width="48" height="48"/>
    <text x="180" y="272" text-anchor="middle" class="icon-label">branch</text>
  </g>
  <g class="icon-cell">
    <rect x="236" y="196" width="96" height="112" rx="8" fill="#ffffff" stroke="#e0e0e0"/>
    <use href="#calendar-task" x="260" y="204" width="48" height="48"/>
    <text x="284" y="272" text-anchor="middle" class="icon-label">calendar-task</text>
  </g>
  <g class="icon-cell">
    <rect x="340" y="196" width="96" height="112" rx="8" fill="#ffffff" stroke="#e0e0e0"/>
    <use href="#canvas" x="364" y="204" width="48" height="48"/>
    <text x="388" y="272" text-anchor="middle" class="icon-label">canvas</text>
  </g>
  <g class="icon-cell">
    <rect x="444" y="196" width="96" height="112" rx="8" fill="#ffffff" stroke="#e0e0e0"/>
    <use href="#check-filled" x="468" y="204" width="48" height="48"/>
    <text x="492" y="272" text-anchor="middle" class="icon-label">check-filled</text>
  </g>
  <g class="icon-cell">
    <rect x="548" y="196" width="96" height="112" rx="8" fill="#ffffff" stroke="#e0e0e0"/>
    <use href="#check" x="572" y="204" width="48" height="48"/>
    <text x="596" y="272" text-anchor="middle" class="icon-label">check</text>
  </g>
  <g class="icon-cell">
    <rect x="652" y="196" width="96" height="112" rx="8" fill="#ffffff" stroke="#e0e0e0"/>
    <use href="#checkmark" x="676" y="204" width="48" height="48"/>
    <text x="700" y="272" text-anchor="middle" class="icon-label">checkmark</text>
  </g>
  <g class="icon-cell">
    <rect x="756" y="196" width="96" height="112" rx="8" fill="#ffffff" stroke="#e0e0e0"/>
    <use href="#chevron-right" x="780" y="204" width="48" height="48"/>
    <text x="804" y="272" text-anchor="middle" class="icon-label">chevron-right</text>
  </g>
  <g class="icon-cell">
    <rect x="28" y="316" width="96" height="112" rx="8" fill="#ffffff" stroke="#e0e0e0"/>
    <use href="#cloud" x="52" y="324" width="48" height="48"/>
    <text x="76" y="392" text-anchor="middle" class="icon-label">cloud</text>
  </g>
  <g class="icon-cell">
    <rect x="132" y="316" width="96" height="112" rx="8" fill="#ffffff" stroke="#e0e0e0"/>
    <use href="#code" x="156" y="324" width="48" height="48"/>
    <text x="180" y="392" text-anchor="middle" class="icon-label">code</text>
  </g>
  <g class="icon-cell">
    <rect x="236" y="316" width="96" height="112" rx="8" fill="#ffffff" stroke="#e0e0e0"/>
    <use href="#copy" x="260" y="324" width="48" height="48"/>
    <text x="284" y="392" text-anchor="middle" class="icon-label">copy</text>
  </g>
  <g class="icon-cell">
    <rect x="340" y="316" width="96" height="112" rx="8" fill="#ffffff" stroke="#e0e0e0"/>
    <use href="#course-new" x="364" y="324" width="48" height="48"/>
    <text x="388" y="392" text-anchor="middle" class="icon-label">course-new</text>
  </g>
  <g class="icon-cell">
    <rect x="444" y="316" width="96" height="112" rx="8" fill="#ffffff" stroke="#e0e0e0"/>
    <use href="#course" x="468" y="324" width="48" height="48"/>
    <text x="492" y="392" text-anchor="middle" class="icon-label">course</text>
  </g>
  <g class="icon-cell">
    <rect x="548" y="316" width="96" height="112" rx="8" fill="#ffffff" stroke="#e0e0e0"/>
    <use href="#cursor" x="572" y="324" width="48" height="48"/>
    <text x="596" y="392" text-anchor="middle" class="icon-label">cursor</text>
  </g>
  <g class="icon-cell">
    <rect x="652" y="316" width="96" height="112" rx="8" fill="#ffffff" stroke="#e0e0e0"/>
    <use href="#customers-new" x="676" y="324" width="48" height="48"/>
    <text x="700" y="392" text-anchor="middle" class="icon-label">customers-new</text>
  </g>
  <g class="icon-cell">
    <rect x="756" y="316" width="96" height="112" rx="8" fill="#ffffff" stroke="#e0e0e0"/>
    <use href="#database" x="780" y="324" width="48" height="48"/>
    <text x="804" y="392" text-anchor="middle" class="icon-label">database</text>
  </g>
  <g class="icon-cell">
    <rect x="28" y="436" width="96" height="112" rx="8" fill="#ffffff" stroke="#e0e0e0"/>
    <use href="#discord" x="52" y="444" width="48" height="48"/>
    <text x="76" y="512" text-anchor="middle" class="icon-label">discord</text>
  </g>
  <g class="icon-cell">
    <rect x="132" y="436" width="96" height="112" rx="8" fill="#ffffff" stroke="#e0e0e0"/>
    <use href="#embed" x="156" y="444" width="48" height="48"/>
    <text x="180" y="512" text-anchor="middle" class="icon-label">embed</text>
  </g>
  <g class="icon-cell">
    <rect x="236" y="436" width="96" height="112" rx="8" fill="#ffffff" stroke="#e0e0e0"/>
    <use href="#eval" x="260" y="444" width="48" height="48"/>
    <text x="284" y="512" text-anchor="middle" class="icon-label">eval</text>
  </g>
  <g class="icon-cell">
    <rect x="340" y="436" width="96" height="112" rx="8" fill="#ffffff" stroke="#e0e0e0"/>
    <use href="#evals" x="364" y="444" width="48" height="48"/>
    <text x="388" y="512" text-anchor="middle" class="icon-label">evals</text>
  </g>
  <g class="icon-cell">
    <rect x="444" y="436" width="96" height="112" rx="8" fill="#ffffff" stroke="#e0e0e0"/>
    <use href="#github" x="468" y="444" width="48" height="48"/>
    <text x="492" y="512" text-anchor="middle" class="icon-label">github</text>
  </g>
  <g class="icon-cell">
    <rect x="548" y="436" width="96" height="112" rx="8" fill="#ffffff" stroke="#e0e0e0"/>
    <use href="#globe" x="572" y="444" width="48" height="48"/>
    <text x="596" y="512" text-anchor="middle" class="icon-label">globe</text>
  </g>
  <g class="icon-cell">
    <rect x="652" y="436" width="96" height="112" rx="8" fill="#ffffff" stroke="#e0e0e0"/>
    <use href="#guardrails" x="676" y="444" width="48" height="48"/>
    <text x="700" y="512" text-anchor="middle" class="icon-label">guardrails</text>
  </g>
  <g class="icon-cell">
    <rect x="756" y="436" width="96" height="112" rx="8" fill="#ffffff" stroke="#e0e0e0"/>
    <use href="#harness" x="780" y="444" width="48" height="48"/>
    <text x="804" y="512" text-anchor="middle" class="icon-label">harness</text>
  </g>
  <g class="icon-cell">
    <rect x="28" y="556" width="96" height="112" rx="8" fill="#ffffff" stroke="#e0e0e0"/>
    <use href="#input" x="52" y="564" width="48" height="48"/>
    <text x="76" y="632" text-anchor="middle" class="icon-label">input</text>
  </g>
  <g class="icon-cell">
    <rect x="132" y="556" width="96" height="112" rx="8" fill="#ffffff" stroke="#e0e0e0"/>
    <use href="#integration" x="156" y="564" width="48" height="48"/>
    <text x="180" y="632" text-anchor="middle" class="icon-label">integration</text>
  </g>
  <g class="icon-cell">
    <rect x="236" y="556" width="96" height="112" rx="8" fill="#ffffff" stroke="#e0e0e0"/>
    <use href="#latency" x="260" y="564" width="48" height="48"/>
    <text x="284" y="632" text-anchor="middle" class="icon-label">latency</text>
  </g>
  <g class="icon-cell">
    <rect x="340" y="556" width="96" height="112" rx="8" fill="#ffffff" stroke="#e0e0e0"/>
    <use href="#link-external" x="364" y="564" width="48" height="48"/>
    <text x="388" y="632" text-anchor="middle" class="icon-label">link-external</text>
  </g>
  <g class="icon-cell">
    <rect x="444" y="556" width="96" height="112" rx="8" fill="#ffffff" stroke="#e0e0e0"/>
    <use href="#linkedin" x="468" y="564" width="48" height="48"/>
    <text x="492" y="632" text-anchor="middle" class="icon-label">linkedin</text>
  </g>
  <g class="icon-cell">
    <rect x="548" y="556" width="96" height="112" rx="8" fill="#ffffff" stroke="#e0e0e0"/>
    <use href="#list" x="572" y="564" width="48" height="48"/>
    <text x="596" y="632" text-anchor="middle" class="icon-label">list</text>
  </g>
  <g class="icon-cell">
    <rect x="652" y="556" width="96" height="112" rx="8" fill="#ffffff" stroke="#e0e0e0"/>
    <use href="#llm-2" x="676" y="564" width="48" height="48"/>
    <text x="700" y="632" text-anchor="middle" class="icon-label">llm-2</text>
  </g>
  <g class="icon-cell">
    <rect x="756" y="556" width="96" height="112" rx="8" fill="#ffffff" stroke="#e0e0e0"/>
    <use href="#mastra-logo" x="780" y="564" width="48" height="48"/>
    <text x="804" y="632" text-anchor="middle" class="icon-label">mastra-logo</text>
  </g>
  <g class="icon-cell">
    <rect x="28" y="676" width="96" height="112" rx="8" fill="#ffffff" stroke="#e0e0e0"/>
    <use href="#mcp" x="52" y="684" width="48" height="48"/>
    <text x="76" y="752" text-anchor="middle" class="icon-label">mcp</text>
  </g>
  <g class="icon-cell">
    <rect x="132" y="676" width="96" height="112" rx="8" fill="#ffffff" stroke="#e0e0e0"/>
    <use href="#memory" x="156" y="684" width="48" height="48"/>
    <text x="180" y="752" text-anchor="middle" class="icon-label">memory</text>
  </g>
  <g class="icon-cell">
    <rect x="236" y="676" width="96" height="112" rx="8" fill="#ffffff" stroke="#e0e0e0"/>
    <use href="#observability" x="260" y="684" width="48" height="48"/>
    <text x="284" y="752" text-anchor="middle" class="icon-label">observability</text>
  </g>
  <g class="icon-cell">
    <rect x="340" y="676" width="96" height="112" rx="8" fill="#ffffff" stroke="#e0e0e0"/>
    <use href="#output" x="364" y="684" width="48" height="48"/>
    <text x="388" y="752" text-anchor="middle" class="icon-label">output</text>
  </g>
  <g class="icon-cell">
    <rect x="444" y="676" width="96" height="112" rx="8" fill="#ffffff" stroke="#e0e0e0"/>
    <use href="#person" x="468" y="684" width="48" height="48"/>
    <text x="492" y="752" text-anchor="middle" class="icon-label">person</text>
  </g>
  <g class="icon-cell">
    <rect x="548" y="676" width="96" height="112" rx="8" fill="#ffffff" stroke="#e0e0e0"/>
    <use href="#platform" x="572" y="684" width="48" height="48"/>
    <text x="596" y="752" text-anchor="middle" class="icon-label">platform</text>
  </g>
  <g class="icon-cell">
    <rect x="652" y="676" width="96" height="112" rx="8" fill="#ffffff" stroke="#e0e0e0"/>
    <use href="#play" x="676" y="684" width="48" height="48"/>
    <text x="700" y="752" text-anchor="middle" class="icon-label">play</text>
  </g>
  <g class="icon-cell">
    <rect x="756" y="676" width="96" height="112" rx="8" fill="#ffffff" stroke="#e0e0e0"/>
    <use href="#product-gateway" x="780" y="684" width="48" height="48"/>
    <text x="804" y="752" text-anchor="middle" class="icon-label">product-gateway</text>
  </g>
  <g class="icon-cell">
    <rect x="28" y="796" width="96" height="112" rx="8" fill="#ffffff" stroke="#e0e0e0"/>
    <use href="#product-platform" x="52" y="804" width="48" height="48"/>
    <text x="76" y="872" text-anchor="middle" class="icon-label">product-platform</text>
  </g>
  <g class="icon-cell">
    <rect x="132" y="796" width="96" height="112" rx="8" fill="#ffffff" stroke="#e0e0e0"/>
    <use href="#product-server" x="156" y="804" width="48" height="48"/>
    <text x="180" y="872" text-anchor="middle" class="icon-label">product-server</text>
  </g>
  <g class="icon-cell">
    <rect x="236" y="796" width="96" height="112" rx="8" fill="#ffffff" stroke="#e0e0e0"/>
    <use href="#product-support" x="260" y="804" width="48" height="48"/>
    <text x="284" y="872" text-anchor="middle" class="icon-label">product-support</text>
  </g>
  <g class="icon-cell">
    <rect x="340" y="796" width="96" height="112" rx="8" fill="#ffffff" stroke="#e0e0e0"/>
    <use href="#projects" x="364" y="804" width="48" height="48"/>
    <text x="388" y="872" text-anchor="middle" class="icon-label">projects</text>
  </g>
  <g class="icon-cell">
    <rect x="444" y="796" width="96" height="112" rx="8" fill="#ffffff" stroke="#e0e0e0"/>
    <use href="#prompt" x="468" y="804" width="48" height="48"/>
    <text x="492" y="872" text-anchor="middle" class="icon-label">prompt</text>
  </g>
  <g class="icon-cell">
    <rect x="548" y="796" width="96" height="112" rx="8" fill="#ffffff" stroke="#e0e0e0"/>
    <use href="#rag" x="572" y="804" width="48" height="48"/>
    <text x="596" y="872" text-anchor="middle" class="icon-label">rag</text>
  </g>
  <g class="icon-cell">
    <rect x="652" y="796" width="96" height="112" rx="8" fill="#ffffff" stroke="#e0e0e0"/>
    <use href="#resources-new" x="676" y="804" width="48" height="48"/>
    <text x="700" y="872" text-anchor="middle" class="icon-label">resources-new</text>
  </g>
  <g class="icon-cell">
    <rect x="756" y="796" width="96" height="112" rx="8" fill="#ffffff" stroke="#e0e0e0"/>
    <use href="#retreive" x="780" y="804" width="48" height="48"/>
    <text x="804" y="872" text-anchor="middle" class="icon-label">retreive</text>
  </g>
  <g class="icon-cell">
    <rect x="28" y="916" width="96" height="112" rx="8" fill="#ffffff" stroke="#e0e0e0"/>
    <use href="#retrieval" x="52" y="924" width="48" height="48"/>
    <text x="76" y="992" text-anchor="middle" class="icon-label">retrieval</text>
  </g>
  <g class="icon-cell">
    <rect x="132" y="916" width="96" height="112" rx="8" fill="#ffffff" stroke="#e0e0e0"/>
    <use href="#server" x="156" y="924" width="48" height="48"/>
    <text x="180" y="992" text-anchor="middle" class="icon-label">server</text>
  </g>
  <g class="icon-cell">
    <rect x="236" y="916" width="96" height="112" rx="8" fill="#ffffff" stroke="#e0e0e0"/>
    <use href="#settings" x="260" y="924" width="48" height="48"/>
    <text x="284" y="992" text-anchor="middle" class="icon-label">settings</text>
  </g>
  <g class="icon-cell">
    <rect x="340" y="916" width="96" height="112" rx="8" fill="#ffffff" stroke="#e0e0e0"/>
    <use href="#studio" x="364" y="924" width="48" height="48"/>
    <text x="388" y="992" text-anchor="middle" class="icon-label">studio</text>
  </g>
  <g class="icon-cell">
    <rect x="444" y="916" width="96" height="112" rx="8" fill="#ffffff" stroke="#e0e0e0"/>
    <use href="#token-in" x="468" y="924" width="48" height="48"/>
    <text x="492" y="992" text-anchor="middle" class="icon-label">token-in</text>
  </g>
  <g class="icon-cell">
    <rect x="548" y="916" width="96" height="112" rx="8" fill="#ffffff" stroke="#e0e0e0"/>
    <use href="#token.out" x="572" y="924" width="48" height="48"/>
    <text x="596" y="992" text-anchor="middle" class="icon-label">token.out</text>
  </g>
  <g class="icon-cell">
    <rect x="652" y="916" width="96" height="112" rx="8" fill="#ffffff" stroke="#e0e0e0"/>
    <use href="#tool" x="676" y="924" width="48" height="48"/>
    <text x="700" y="992" text-anchor="middle" class="icon-label">tool</text>
  </g>
  <g class="icon-cell">
    <rect x="756" y="916" width="96" height="112" rx="8" fill="#ffffff" stroke="#e0e0e0"/>
    <use href="#tools-sharp" x="780" y="924" width="48" height="48"/>
    <text x="804" y="992" text-anchor="middle" class="icon-label">tools-sharp</text>
  </g>
  <g class="icon-cell">
    <rect x="28" y="1036" width="96" height="112" rx="8" fill="#ffffff" stroke="#e0e0e0"/>
    <use href="#trace-curved" x="52" y="1044" width="48" height="48"/>
    <text x="76" y="1112" text-anchor="middle" class="icon-label">trace-curved</text>
  </g>
  <g class="icon-cell">
    <rect x="132" y="1036" width="96" height="112" rx="8" fill="#ffffff" stroke="#e0e0e0"/>
    <use href="#trace" x="156" y="1044" width="48" height="48"/>
    <text x="180" y="1112" text-anchor="middle" class="icon-label">trace</text>
  </g>
  <g class="icon-cell">
    <rect x="236" y="1036" width="96" height="112" rx="8" fill="#ffffff" stroke="#e0e0e0"/>
    <use href="#typescript" x="260" y="1044" width="48" height="48"/>
    <text x="284" y="1112" text-anchor="middle" class="icon-label">typescript</text>
  </g>
  <g class="icon-cell">
    <rect x="340" y="1036" width="96" height="112" rx="8" fill="#ffffff" stroke="#e0e0e0"/>
    <use href="#union" x="364" y="1044" width="48" height="48"/>
    <text x="388" y="1112" text-anchor="middle" class="icon-label">union</text>
  </g>
  <g class="icon-cell">
    <rect x="444" y="1036" width="96" height="112" rx="8" fill="#ffffff" stroke="#e0e0e0"/>
    <use href="#vector-store" x="468" y="1044" width="48" height="48"/>
    <text x="492" y="1112" text-anchor="middle" class="icon-label">vector-store</text>
  </g>
  <g class="icon-cell">
    <rect x="548" y="1036" width="96" height="112" rx="8" fill="#ffffff" stroke="#e0e0e0"/>
    <use href="#vscode" x="572" y="1044" width="48" height="48"/>
    <text x="596" y="1112" text-anchor="middle" class="icon-label">vscode</text>
  </g>
  <g class="icon-cell">
    <rect x="652" y="1036" width="96" height="112" rx="8" fill="#ffffff" stroke="#e0e0e0"/>
    <use href="#windsurf" x="676" y="1044" width="48" height="48"/>
    <text x="700" y="1112" text-anchor="middle" class="icon-label">windsurf</text>
  </g>
  <g class="icon-cell">
    <rect x="756" y="1036" width="96" height="112" rx="8" fill="#ffffff" stroke="#e0e0e0"/>
    <use href="#workflow-new" x="780" y="1044" width="48" height="48"/>
    <text x="804" y="1112" text-anchor="middle" class="icon-label">workflow-new</text>
  </g>
  <g class="icon-cell">
    <rect x="28" y="1156" width="96" height="112" rx="8" fill="#ffffff" stroke="#e0e0e0"/>
    <use href="#workflows" x="52" y="1164" width="48" height="48"/>
    <text x="76" y="1232" text-anchor="middle" class="icon-label">workflows</text>
  </g>
  <g class="icon-cell">
    <rect x="132" y="1156" width="96" height="112" rx="8" fill="#ffffff" stroke="#e0e0e0"/>
    <use href="#workshop" x="156" y="1164" width="48" height="48"/>
    <text x="180" y="1232" text-anchor="middle" class="icon-label">workshop</text>
  </g>
  <g class="icon-cell">
    <rect x="236" y="1156" width="96" height="112" rx="8" fill="#ffffff" stroke="#e0e0e0"/>
    <use href="#x" x="260" y="1164" width="48" height="48"/>
    <text x="284" y="1232" text-anchor="middle" class="icon-label">x</text>
  </g>
</svg>
