<svg xmlns="http://www.w3.org/2000/svg" width="32" height="32" viewBox="0 0 32 32" fill="none">
  <g transform="translate(16 16) scale(0.48) translate(-30.5 -16)">
    <path fill="currentColor" d="M5 17.3a4.5 4.5 0 1 1 0 9 4.5 4.5 0 0 1 0-9m5.9-11.6a4.5 4.5 0 0 1 4.4 5.4c-.3 1.4-.6 3 .2 4.2l1.3 1.9.3.2.3-.2 1.3-1.9c.8-1.2.5-2.7.2-4.1a4.5 4.5 0 1 1 8.8.1c-.3 1.3-.6 2.7 0 3.9l1.3 2v.1a4.5 4.5 0 1 1-4.3 3.4c.3-1.3.6-2.7 0-3.9l-1.2-2h-.2L22 16.5c-.8 1.2-.5 2.8-.2 4.2a4.5 4.5 0 1 1-8.8.3q.5-2-.4-3.8l-.9-1.3q-.9-1.2-2.4-1.6a4.5 4.5 0 0 1 1.6-8.7"/>
  </g>
</svg>
