<svg xmlns="http://www.w3.org/2000/svg" width="60" height="60" viewBox="0 0 60 60" fill="none">
<style>
:root { color: #111111; }
@media (prefers-color-scheme: dark) { :root { color: #ffffff; } }
path { fill: currentColor; }
</style>
<path d="M9.62167 32.7826C10.6226 32.7826 11.6137 32.9794 12.5384 33.3618C13.4631 33.7442 14.3033 34.3046 15.011 35.0111C15.7188 35.7177 16.2802 36.5565 16.6632 37.4796C17.0462 38.4027 17.2433 39.3921 17.2433 40.3913C17.2433 41.3905 17.0462 42.3799 16.6632 43.303C16.2802 44.2262 15.7188 45.0649 15.011 45.7715C14.3033 46.478 13.4631 47.0385 12.5384 47.4208C11.6137 47.8032 10.6226 48 9.62167 48C7.60028 48 5.66168 47.1984 4.23234 45.7715C2.803 44.3446 2 42.4093 2 40.3913C2 38.3734 2.803 36.4381 4.23234 35.0111C5.66168 33.5842 7.60028 32.7826 9.62167 32.7826ZM19.6145 13C20.7434 13.0023 21.8577 13.4239 22.8769 13.9086C23.8961 14.3933 24.7947 15.0979 25.5077 15.9716C26.2208 16.8452 26.7306 17.8661 27.0003 18.9605C27.2699 20.0548 27.2926 21.1953 27.0668 22.2995C26.5587 24.6667 26.0506 27.372 27.4056 29.401L29.6074 32.6135L30.1155 32.9517L30.6236 32.6135L32.8254 29.401C34.1804 27.372 33.6723 24.8358 33.1642 22.4686C32.9389 21.3567 32.9656 20.2086 33.2422 19.1083C33.5188 18.0081 34.0383 16.9834 34.7628 16.1095C35.4872 15.2355 36.3983 14.5344 37.4292 14.0573C38.4602 13.5802 39.585 13.3393 40.7212 13.3522C41.8575 13.3651 42.9765 13.6314 43.9963 14.1318C45.0161 14.6321 45.911 15.3538 46.6154 16.2439C47.3197 17.1341 47.8158 18.1702 48.0673 19.2765C48.3188 20.3828 48.3193 21.5312 48.0688 22.6377C47.5607 24.8358 47.0526 27.2029 48.0688 29.2319L50.2706 32.6135V32.7826C51.8627 32.7601 53.4218 33.236 54.7291 34.1434C56.0364 35.0508 57.0263 36.3441 57.5596 37.8418C58.093 39.3394 58.1432 40.9663 57.703 42.4939C57.2629 44.0214 56.3545 45.373 55.1056 46.3589C53.8566 47.3448 52.3297 47.9154 50.7392 47.9907C49.1488 48.066 47.5747 47.6421 46.2379 46.7786C44.9011 45.9151 43.8687 44.6553 43.2858 43.1762C42.7029 41.697 42.5986 40.0727 42.9877 38.5314C43.4958 36.3333 44.0039 33.9662 42.9877 31.9372L40.9552 28.5556H40.6165L38.4147 31.43C37.0597 33.4589 37.5678 36.1643 38.0759 38.5314C38.3485 39.6311 38.3716 40.7776 38.1437 41.8874C37.9157 42.9971 37.4424 44.0421 36.7583 44.9459C36.0742 45.8497 35.1966 46.5897 34.1894 47.1117C33.1823 47.6337 32.0712 47.9246 30.9371 47.9632C29.8029 48.0018 28.6745 47.7871 27.6341 47.3348C26.5937 46.8824 25.6676 46.2039 24.9235 45.3487C24.1793 44.4934 23.6358 43.4831 23.3327 42.3915C23.0295 41.2998 22.9744 40.1543 23.1713 39.0386C23.7359 36.7842 23.5101 34.6425 22.4938 32.6135L20.9695 30.4155C19.9533 29.0628 18.5983 28.161 16.9046 27.7101C15.2454 27.073 13.8614 25.8769 12.9922 24.3288C12.123 22.7806 11.8232 20.9779 12.1448 19.2324C12.4663 17.487 13.389 15.9086 14.753 14.7705C16.1171 13.6324 17.8368 13.0061 19.6145 13Z" fill="black"/>
</svg>
